<svg width="1296" height="576" viewBox="0 0 1296 576" fill="none" xmlns="http://www.w3.org/2000/svg">
<path d="M0 528C0 544.802 0 553.202 3.2698 559.62C6.14601 565.265 10.7354 569.854 16.3803 572.73C22.7976 576 31.1984 576 48 576H1232.88C1261.57 576 1275.92 576 1283.92 570.005C1290.89 564.781 1295.24 556.786 1295.85 548.098C1296.55 538.127 1288.77 526.074 1273.21 501.967L1023.15 114.595C1018.53 107.436 1016.22 103.856 1013.17 101.145C1010.47 98.7423 1007.36 96.8474 1003.99 95.551C1000.18 94.0875 995.94 93.6759 987.458 92.8525L52.6375 2.1095C34.3924 0.33844 25.2698 -0.547058 18.2208 2.46234C12.0287 5.1059 6.90585 9.75555 3.67639 15.6633C0 22.3885 0 31.554 0 49.8849V528Z" fill="url(#paint0_linear_1_3235)"/>
<defs>
<linearGradient id="paint0_linear_1_3235" x1="440.333" y1="455.375" x2="564.937" y2="13.1538" gradientUnits="userSpaceOnUse">
<stop stop-color="#FF6600"/>
<stop offset="1" stop-color="#D128A1"/>
</linearGradient>
</defs>
</svg>
