<svg width="129" height="36" viewBox="0 0 129 36" fill="none" xmlns="http://www.w3.org/2000/svg">
<path fill-rule="evenodd" clip-rule="evenodd" d="M15.8268 35.8421L8.70863 31.7169C8.44583 31.5655 8.29928 31.2856 8.29896 31.0016V21.8497L0.410473 17.278C0.147519 17.1265 0.000483669 16.8503 0 16.5663V8.26326C0 7.62516 0.691324 7.24 1.2282 7.5525L16.7098 16.5205C17.1021 16.748 17.1021 16.7438 17.1021 17.2371V35.1653C17.1021 35.8408 16.4394 36.1973 15.8268 35.8421Z" fill="#FF6600"/>
<path fill-rule="evenodd" clip-rule="evenodd" d="M20.1239 35.8421L27.2421 31.7169C27.5049 31.5655 27.6514 31.2856 27.6517 31.0016V21.8497L35.5402 17.278C35.8032 17.1265 35.9502 16.8503 35.9507 16.5663V8.26326C35.9507 7.62516 35.2594 7.24 34.7225 7.5525L19.2409 16.5205C18.8486 16.748 18.8486 16.7438 18.8486 17.2371V35.1653C18.8486 35.8408 19.5113 36.1973 20.1239 35.8421Z" fill="#D128A1"/>
<path fill-rule="evenodd" clip-rule="evenodd" d="M33.7897 4.22346L26.6914 0.109725C26.4294 -0.0430433 26.1146 -0.0304231 25.8695 0.111179L17.9734 4.68726L10.0961 0.122028C9.84118 -0.0283126 9.50003 -0.0232968 9.25481 0.121056L2.17196 4.22572C1.59043 4.56281 1.60623 5.40693 2.14439 5.71732L17.541 14.64C17.8038 14.7923 18.1405 14.7937 18.4068 14.6394L33.757 5.74353C34.3397 5.40579 34.3703 4.55991 33.7897 4.22346Z" fill="url(#paint0_linear_222_1413)"/>
<path fill-rule="evenodd" clip-rule="evenodd" d="M59.9407 7.65786V11.14H55.231V25.5H50.9012V11.14H46.1916V7.65786H59.9407ZM126.041 9.08699C125.422 9.08699 124.917 8.89862 124.525 8.52188C124.133 8.14514 123.937 7.67955 123.937 7.12512C123.937 6.55645 124.133 6.08358 124.525 5.707C124.917 5.3301 125.422 5.14172 126.041 5.14172C126.646 5.14172 127.144 5.3301 127.536 5.707C127.928 6.08358 128.124 6.55645 128.124 7.12512C128.124 7.67955 127.928 8.14514 127.536 8.52188C127.144 8.89862 126.646 9.08699 126.041 9.08699ZM75.7591 18.1802C75.7591 18.5869 75.7338 19.0104 75.6832 19.4509H65.884C65.9516 20.3321 66.2344 21.0056 66.7324 21.4717C67.2302 21.9376 67.8422 22.1705 68.5681 22.1705C69.6484 22.1705 70.3996 21.713 70.8216 20.798H75.4301C75.1935 21.73 74.7674 22.5688 74.1512 23.3143C73.535 24.0597 72.7628 24.6444 71.8344 25.0679C70.906 25.4916 69.8679 25.7034 68.7199 25.7034C67.3358 25.7034 66.1035 25.4068 65.0233 24.8138C63.9427 24.2207 63.0987 23.3736 62.4911 22.2721C61.8834 21.1707 61.5795 19.883 61.5795 18.4089C61.5795 16.9348 61.8791 15.6471 62.4784 14.5457C63.0776 13.4444 63.9174 12.5973 64.9978 12.0042C66.0781 11.411 67.3189 11.1146 68.7199 11.1146C70.0873 11.1146 71.3027 11.4026 72.3662 11.9787C73.4296 12.5549 74.261 13.3766 74.8603 14.4441C75.4596 15.5115 75.7591 16.7569 75.7591 18.1802ZM71.328 17.0364C71.328 16.291 71.0748 15.6979 70.5684 15.2574C70.062 14.8168 69.429 14.5965 68.6693 14.5965C67.9435 14.5965 67.3317 14.8084 66.8336 15.232C66.3356 15.6555 66.0275 16.2571 65.9093 17.0364H71.328ZM86.969 11.1654C88.6233 11.1654 89.9442 11.7033 90.9318 12.7793C91.9193 13.8553 92.413 15.3337 92.413 17.2144V25.5H88.1085V17.799C88.1085 16.8502 87.8637 16.113 87.3741 15.5877C86.8846 15.0626 86.2264 14.7999 85.3993 14.7999C84.572 14.7999 83.9136 15.0626 83.4241 15.5877C82.9347 16.113 82.6898 16.8502 82.6898 17.799V25.5H78.3601V11.3178H82.6898V13.1986C83.1288 12.5717 83.7195 12.076 84.4624 11.7119C85.205 11.3476 86.0406 11.1654 86.969 11.1654ZM103.623 21.8148V25.5H101.42C99.8502 25.5 98.6263 25.1145 97.7485 24.3436C96.8708 23.5728 96.4319 22.3145 96.4319 20.5694V14.927H94.7101V11.3178H96.4319V7.86129H100.762V11.3178H103.597V14.927H100.762V20.6202C100.762 21.0437 100.863 21.3487 101.065 21.5352C101.268 21.7216 101.606 21.8148 102.078 21.8148H103.623ZM105.49 18.3835C105.49 16.9264 105.764 15.6471 106.312 14.5457C106.861 13.4444 107.608 12.5973 108.554 12.0042C109.499 11.411 110.554 11.1146 111.718 11.1146C112.714 11.1146 113.588 11.3178 114.339 11.7245C115.09 12.1312 115.669 12.6649 116.074 13.3258V11.3178H120.403V25.5H116.074V23.4922C115.652 24.1529 115.065 24.6866 114.314 25.0933C113.563 25.5 112.689 25.7034 111.693 25.7034C110.545 25.7034 109.499 25.4026 108.554 24.8011C107.608 24.1997 106.861 23.3439 106.312 22.2339C105.764 21.1243 105.49 19.8408 105.49 18.3835ZM116.074 18.4089C116.074 17.3245 115.774 16.4689 115.175 15.842C114.576 15.215 113.845 14.9016 112.985 14.9016C112.124 14.9016 111.394 15.2107 110.794 15.8293C110.195 16.4477 109.896 17.2992 109.896 18.3835C109.896 19.4679 110.195 20.3279 110.794 20.9633C111.394 21.5988 112.124 21.9164 112.985 21.9164C113.845 21.9164 114.576 21.603 115.175 20.976C115.774 20.3491 116.074 19.4933 116.074 18.4089ZM128.195 11.3178V25.5H123.865V11.3178H128.195Z" fill="#D128A1"/>
<path d="M62.6594 30.8897L61.3669 34.8555H60.3849L59.5156 32.1701L58.6182 34.8555H57.6417L56.3435 30.8897H57.2918L58.1835 33.677L59.1149 30.8897H59.9615L60.8645 33.6997L61.7846 30.8897H62.6594ZM64.6441 34.9008C64.3242 34.9008 64.0372 34.8338 63.7833 34.6997C63.5294 34.5657 63.3309 34.3795 63.1879 34.1417C63.0449 33.9036 62.9733 33.6337 62.9733 33.3315C62.9733 33.0292 63.0449 32.7593 63.1879 32.5212C63.3309 32.2834 63.5294 32.0972 63.7833 31.9632C64.0372 31.8291 64.3242 31.7621 64.6441 31.7621C64.9639 31.7621 65.25 31.8291 65.5019 31.9632C65.7541 32.0972 65.9516 32.2834 66.0946 32.5212C66.2376 32.7593 66.3092 33.0292 66.3092 33.3315C66.3092 33.6337 66.2376 33.9036 66.0946 34.1417C65.9516 34.3795 65.7541 34.5657 65.5019 34.6997C65.25 34.8338 64.9639 34.9008 64.6441 34.9008ZM64.6441 34.1756C64.8698 34.1756 65.0552 34.0991 65.2 33.9462C65.3449 33.7932 65.4173 33.5884 65.4173 33.3315C65.4173 33.0747 65.3449 32.8697 65.2 32.7167C65.0552 32.5638 64.8698 32.4873 64.6441 32.4873C64.4184 32.4873 64.232 32.5638 64.0853 32.7167C63.9386 32.8697 63.8652 33.0747 63.8652 33.3315C63.8652 33.5884 63.9386 33.7932 64.0853 33.9462C64.232 34.0991 64.4184 34.1756 64.6441 34.1756ZM68.0567 32.2097C68.162 32.0625 68.3042 31.951 68.4828 31.8754C68.6616 31.7998 68.8676 31.7621 69.1009 31.7621V32.5779C69.0031 32.5704 68.9371 32.5666 68.9033 32.5666C68.6513 32.5666 68.4536 32.6374 68.3106 32.779C68.1676 32.9206 68.0962 33.1331 68.0962 33.4165V34.8555H67.2157V31.8074H68.0567V32.2097ZM69.9454 30.6516H70.8259V34.8555H69.9454V30.6516ZM75.057 30.6516V34.8555H74.2159V34.5042C73.9978 34.7686 73.6816 34.9008 73.2677 34.9008C72.9817 34.9008 72.723 34.8365 72.4916 34.7082C72.2603 34.5797 72.0786 34.3965 71.947 34.1586C71.8153 33.9207 71.7493 33.645 71.7493 33.3315C71.7493 33.0179 71.8153 32.7423 71.947 32.5043C72.0786 32.2664 72.2603 32.0832 72.4916 31.9547C72.723 31.8263 72.9817 31.7621 73.2677 31.7621C73.6553 31.7621 73.9581 31.8849 74.1764 32.1304V30.6516H75.057ZM73.4201 34.1756C73.6421 34.1756 73.8265 34.0991 73.9733 33.9462C74.12 33.7932 74.1933 33.5884 74.1933 33.3315C74.1933 33.0747 74.12 32.8697 73.9733 32.7167C73.8265 32.5638 73.6421 32.4873 73.4201 32.4873C73.1944 32.4873 73.008 32.5638 72.8613 32.7167C72.7146 32.8697 72.6412 33.0747 72.6412 33.3315C72.6412 33.5884 72.7146 33.7932 72.8613 33.9462C73.008 34.0991 73.1944 34.1756 73.4201 34.1756ZM80.5094 34.9008C80.1895 34.9008 79.9026 34.8338 79.6486 34.6997C79.3947 34.5657 79.1962 34.3795 79.0532 34.1417C78.9102 33.9036 78.8387 33.6337 78.8387 33.3315C78.8387 33.0292 78.9102 32.7593 79.0532 32.5212C79.1962 32.2834 79.3947 32.0972 79.6486 31.9632C79.9026 31.8291 80.1895 31.7621 80.5094 31.7621C80.8293 31.7621 81.1153 31.8291 81.3673 31.9632C81.6194 32.0972 81.8169 32.2834 81.9599 32.5212C82.1029 32.7593 82.1745 33.0292 82.1745 33.3315C82.1745 33.6337 82.1029 33.9036 81.9599 34.1417C81.8169 34.3795 81.6194 34.5657 81.3673 34.6997C81.1153 34.8338 80.8293 34.9008 80.5094 34.9008ZM80.5094 34.1756C80.7351 34.1756 80.9205 34.0991 81.0653 33.9462C81.2102 33.7932 81.2826 33.5884 81.2826 33.3315C81.2826 33.0747 81.2102 32.8697 81.0653 32.7167C80.9205 32.5638 80.7351 32.4873 80.5094 32.4873C80.2837 32.4873 80.0973 32.5638 79.9506 32.7167C79.8039 32.8697 79.7305 33.0747 79.7305 33.3315C79.7305 33.5884 79.8039 33.7932 79.9506 33.9462C80.0973 34.0991 80.2837 34.1756 80.5094 34.1756ZM84.0462 31.8754H84.825V32.5552H84.0687V34.8555H83.1883V32.5552H82.7198V31.8754H83.1883V31.7394C83.1883 31.392 83.2908 31.1162 83.4959 30.9123C83.701 30.7083 83.9897 30.6063 84.3623 30.6063C84.494 30.6063 84.6191 30.6205 84.7376 30.6489C84.8561 30.6772 84.955 30.7178 85.034 30.7707L84.8024 31.4109C84.7009 31.3391 84.5824 31.3031 84.4469 31.3031C84.1798 31.3031 84.0462 31.4506 84.0462 31.7451V31.8754ZM93.6225 31.7621C93.9988 31.7621 94.3025 31.8754 94.534 32.1021C94.7654 32.3287 94.8812 32.6648 94.8812 33.1105V34.8555H94.0006V33.2464C94.0006 33.0048 93.9478 32.8244 93.8426 32.7054C93.7371 32.5865 93.5848 32.5269 93.3853 32.5269C93.1633 32.5269 92.9865 32.5958 92.8547 32.7337C92.723 32.8716 92.6572 33.0765 92.6572 33.3485V34.8555H91.7768V30.6516H92.6572V32.1248C92.774 32.0076 92.915 31.9179 93.0806 31.8556C93.2462 31.7933 93.4268 31.7621 93.6225 31.7621ZM97.4752 34.9008C97.1554 34.9008 96.8684 34.8338 96.6145 34.6997C96.3605 34.5657 96.1621 34.3795 96.0191 34.1417C95.8761 33.9036 95.8045 33.6337 95.8045 33.3315C95.8045 33.0292 95.8761 32.7593 96.0191 32.5212C96.1621 32.2834 96.3605 32.0972 96.6145 31.9632C96.8684 31.8291 97.1554 31.7621 97.4752 31.7621C97.7951 31.7621 98.0811 31.8291 98.3331 31.9632C98.5852 32.0972 98.7828 32.2834 98.9258 32.5212C99.0688 32.7593 99.1403 33.0292 99.1403 33.3315C99.1403 33.6337 99.0688 33.9036 98.9258 34.1417C98.7828 34.3795 98.5852 34.5657 98.3331 34.6997C98.0811 34.8338 97.7951 34.9008 97.4752 34.9008ZM97.4752 34.1756C97.7009 34.1756 97.8864 34.0991 98.0311 33.9462C98.1761 33.7932 98.2485 33.5884 98.2485 33.3315C98.2485 33.0747 98.1761 32.8697 98.0311 32.7167C97.8864 32.5638 97.7009 32.4873 97.4752 32.4873C97.2495 32.4873 97.0632 32.5638 96.9164 32.7167C96.7697 32.8697 96.6964 33.0747 96.6964 33.3315C96.6964 33.5884 96.7697 33.7932 96.9164 33.9462C97.0632 34.0991 97.2495 34.1756 97.4752 34.1756ZM101.842 31.7621C102.124 31.7621 102.381 31.8273 102.612 31.9576C102.844 32.0879 103.025 32.2711 103.157 32.5072C103.288 32.7431 103.354 33.0179 103.354 33.3315C103.354 33.645 103.288 33.9198 103.157 34.1557C103.025 34.3918 102.844 34.575 102.612 34.7053C102.381 34.8356 102.124 34.9008 101.842 34.9008C101.454 34.9008 101.149 34.7781 100.927 34.5325V35.9546H100.047V31.8074H100.888V32.1587C101.106 31.8943 101.424 31.7621 101.842 31.7621ZM101.689 34.1756C101.915 34.1756 102.1 34.0991 102.245 33.9462C102.39 33.7932 102.463 33.5884 102.463 33.3315C102.463 33.0747 102.39 32.8697 102.245 32.7167C102.1 32.5638 101.915 32.4873 101.689 32.4873C101.464 32.4873 101.278 32.5638 101.133 32.7167C100.988 32.8697 100.916 33.0747 100.916 33.3315C100.916 33.5884 100.988 33.7932 101.133 33.9462C101.278 34.0991 101.464 34.1756 101.689 34.1756ZM106.056 31.7621C106.338 31.7621 106.595 31.8273 106.826 31.9576C107.058 32.0879 107.239 32.2711 107.371 32.5072C107.502 32.7431 107.568 33.0179 107.568 33.3315C107.568 33.645 107.502 33.9198 107.371 34.1557C107.239 34.3918 107.058 34.575 106.826 34.7053C106.595 34.8356 106.338 34.9008 106.056 34.9008C105.668 34.9008 105.363 34.7781 105.141 34.5325V35.9546H104.261V31.8074H105.102V32.1587C105.32 31.8943 105.638 31.7621 106.056 31.7621ZM105.903 34.1756C106.129 34.1756 106.314 34.0991 106.459 33.9462C106.604 33.7932 106.677 33.5884 106.677 33.3315C106.677 33.0747 106.604 32.8697 106.459 32.7167C106.314 32.5638 106.129 32.4873 105.903 32.4873C105.678 32.4873 105.492 32.5638 105.347 32.7167C105.202 32.8697 105.13 33.0747 105.13 33.3315C105.13 33.5884 105.202 33.7932 105.347 33.9462C105.492 34.0991 105.678 34.1756 105.903 34.1756ZM108.475 31.8074H109.355V34.8555H108.475V31.8074ZM108.915 31.3824C108.753 31.3824 108.622 31.3353 108.52 31.2408C108.419 31.1465 108.368 31.0293 108.368 30.8897C108.368 30.7498 108.419 30.6328 108.52 30.5383C108.622 30.444 108.753 30.3967 108.915 30.3967C109.077 30.3967 109.209 30.442 109.31 30.5327C109.412 30.6233 109.463 30.7366 109.463 30.8727C109.463 31.0199 109.412 31.1418 109.31 31.2381C109.209 31.3344 109.077 31.3824 108.915 31.3824ZM112.339 31.7621C112.715 31.7621 113.019 31.8754 113.251 32.1021C113.482 32.3287 113.598 32.6648 113.598 33.1105V34.8555H112.717V33.2464C112.717 33.0048 112.665 32.8244 112.559 32.7054C112.454 32.5865 112.301 32.5269 112.102 32.5269C111.88 32.5269 111.703 32.5958 111.571 32.7337C111.44 32.8716 111.374 33.0765 111.374 33.3485V34.8555H110.494V31.8074H111.334V32.1644C111.451 32.0359 111.596 31.9369 111.769 31.867C111.942 31.7971 112.132 31.7621 112.339 31.7621ZM117.88 31.8074V34.3456C117.88 34.9045 117.735 35.3201 117.445 35.592C117.155 35.864 116.732 36 116.175 36C115.881 36 115.603 35.964 115.34 35.8923C115.076 35.8205 114.858 35.7166 114.685 35.5806L115.035 34.9461C115.163 35.0519 115.325 35.1359 115.52 35.1982C115.716 35.2605 115.912 35.2918 116.107 35.2918C116.412 35.2918 116.637 35.2228 116.782 35.085C116.927 34.9471 116.999 34.7383 116.999 34.4588V34.3286C116.77 34.5817 116.45 34.7082 116.04 34.7082C115.761 34.7082 115.506 34.6469 115.275 34.5241C115.043 34.4012 114.86 34.2285 114.724 34.0057C114.589 33.7829 114.521 33.5261 114.521 33.2351C114.521 32.9443 114.589 32.6874 114.724 32.4646C114.86 32.2418 115.043 32.0689 115.275 31.9463C115.506 31.8234 115.761 31.7621 116.04 31.7621C116.48 31.7621 116.815 31.9076 117.044 32.1984V31.8074H117.88ZM116.215 33.9831C116.448 33.9831 116.639 33.9141 116.787 33.7762C116.936 33.6384 117.01 33.4579 117.01 33.2351C117.01 33.0122 116.936 32.832 116.787 32.6941C116.639 32.5562 116.448 32.4873 116.215 32.4873C115.981 32.4873 115.789 32.5562 115.639 32.6941C115.488 32.832 115.413 33.0122 115.413 33.2351C115.413 33.4579 115.488 33.6384 115.639 33.7762C115.789 33.9141 115.981 33.9831 116.215 33.9831ZM89.4816 34.9008C89.2296 34.9008 88.9831 34.8697 88.7423 34.8073C88.5014 34.745 88.3095 34.6666 88.1665 34.5723L88.4601 33.9378C88.5955 34.0245 88.7592 34.0954 88.951 34.1501C89.1431 34.2049 89.3312 34.2323 89.5155 34.2323C89.8881 34.2323 90.0743 34.1397 90.0743 33.9547C90.0743 33.8678 90.0235 33.8055 89.9219 33.7677C89.8204 33.7299 89.6641 33.6978 89.4534 33.6714C89.2051 33.6337 89.0001 33.5901 88.8382 33.5411C88.6765 33.4921 88.5362 33.4052 88.4177 33.2804C88.2992 33.1558 88.2399 32.9783 88.2399 32.748C88.2399 32.5552 88.2955 32.3843 88.4064 32.2351C88.5175 32.0859 88.6792 31.9699 88.8919 31.8867C89.1045 31.8037 89.3556 31.7621 89.6454 31.7621C89.8599 31.7621 90.0733 31.7857 90.286 31.833C90.4986 31.8801 90.6745 31.9453 90.8137 32.0285L90.5202 32.6573C90.2531 32.5062 89.9614 32.4306 89.6454 32.4306C89.4573 32.4306 89.3161 32.4572 89.2221 32.5099C89.1279 32.5628 89.081 32.6308 89.081 32.714C89.081 32.8083 89.1318 32.8745 89.2333 32.9122C89.3349 32.9499 89.4968 32.9859 89.7188 33.0198C89.9671 33.0614 90.1702 33.1058 90.3284 33.153C90.4864 33.2003 90.6237 33.2862 90.7403 33.4108C90.857 33.5354 90.9154 33.7092 90.9154 33.9321C90.9154 34.1208 90.8588 34.2889 90.7459 34.4362C90.6331 34.5836 90.4685 34.6979 90.2521 34.7789C90.0358 34.8602 89.7789 34.9008 89.4816 34.9008Z" fill="#FF6600"/>
<defs>
<linearGradient id="paint0_linear_222_1413" x1="12.3295" y1="-1.76589" x2="23.6715" y2="11.6799" gradientUnits="userSpaceOnUse">
<stop stop-color="#FF6600"/>
<stop offset="1" stop-color="#D128A1"/>
</linearGradient>
</defs>
</svg>
