<svg version="1.1" xmlns="http://www.w3.org/2000/svg" xmlns:xlink="http://www.w3.org/1999/xlink">
    <symbol id="planet-icon" viewBox="0 0 24 24">
        <g>
            <path d="M4.125 9C3.71079 9 3.375 9.33579 3.375 9.75C3.375 10.1642 3.71079 10.5 4.125 10.5V9ZM19.875 10.5C20.2892 10.5 20.625 10.1642 20.625 9.75C20.625 9.33579 20.2892 9 19.875 9V10.5ZM4.21948 14.0624C3.80527 14.0624 3.46948 14.3982 3.46948 14.8124C3.46948 15.2266 3.80527 15.5624 4.21948 15.5624V14.0624ZM19.9695 15.5624C20.3837 15.5624 20.7195 15.2266 20.7195 14.8124C20.7195 14.3982 20.3837 14.0624 19.9695 14.0624V15.5624ZM20.25 12C20.25 16.5563 16.5563 20.25 12 20.25V21.75C17.3848 21.75 21.75 17.3848 21.75 12H20.25ZM12 20.25C7.44365 20.25 3.75 16.5563 3.75 12H2.25C2.25 17.3848 6.61522 21.75 12 21.75V20.25ZM3.75 12C3.75 7.44365 7.44365 3.75 12 3.75V2.25C6.61522 2.25 2.25 6.61522 2.25 12H3.75ZM12 3.75C16.5563 3.75 20.25 7.44365 20.25 12H21.75C21.75 6.61522 17.3848 2.25 12 2.25V3.75ZM12 20.25C11.7045 20.25 11.3639 20.1163 10.9886 19.7535C10.6098 19.3873 10.2344 18.8211 9.90288 18.0633C9.24079 16.55 8.8125 14.4069 8.8125 12H7.3125C7.3125 14.5637 7.76565 16.9206 8.52865 18.6646C8.90966 19.5355 9.38272 20.2873 9.94605 20.8319C10.513 21.3801 11.2082 21.75 12 21.75V20.25ZM8.8125 12C8.8125 9.59314 9.24079 7.45001 9.90288 5.93665C10.2344 5.17886 10.6098 4.61271 10.9886 4.24648C11.3639 3.88373 11.7045 3.75 12 3.75V2.25C11.2082 2.25 10.513 2.61995 9.94605 3.16805C9.38272 3.71267 8.90966 4.46454 8.52865 5.33542C7.76565 7.07943 7.3125 9.4363 7.3125 12H8.8125ZM12 21.75C12.7918 21.75 13.487 21.3801 14.054 20.8319C14.6173 20.2873 15.0903 19.5355 15.4714 18.6646C16.2344 16.9206 16.6875 14.5637 16.6875 12H15.1875C15.1875 14.4069 14.7592 16.55 14.0971 18.0633C13.7656 18.8211 13.3902 19.3873 13.0114 19.7535C12.6361 20.1163 12.2955 20.25 12 20.25V21.75ZM16.6875 12C16.6875 9.4363 16.2344 7.07943 15.4714 5.33542C15.0903 4.46454 14.6173 3.71267 14.054 3.16805C13.487 2.61995 12.7918 2.25 12 2.25V3.75C12.2955 3.75 12.6361 3.88373 13.0114 4.24648C13.3902 4.61271 13.7656 5.17886 14.0971 5.93665C14.7592 7.45001 15.1875 9.59314 15.1875 12H16.6875ZM4.125 10.5H19.875V9H4.125V10.5ZM4.21948 15.5624H19.9695V14.0624H4.21948V15.5624Z" />
        </g>
    </symbol>

    <symbol id="next-icon" viewBox="0 0 18 18">
        <g>
            <path d="M9.40434 2.6543L15.75 8.99995L9.40434 15.3456" stroke="white" stroke-width="2" stroke-linecap="round" stroke-linejoin="round"/>
            <path d="M15.7499 9L2.25 9" stroke="white" stroke-width="2" stroke-linecap="round" stroke-linejoin="round"/>
        </g>
    </symbol>

    <symbol id="email-icon" viewBox="0 0 25 24">
        <g>
            <path d="M5.15393 6.75L11.8261 11.5403C12.2113 11.8168 12.7215 11.8168 13.1068 11.5403L19.7789 6.75M5.71643 19H19.2164C20.4591 19 21.4664 17.9553 21.4664 16.6667V7.33333C21.4664 6.04467 20.4591 5 19.2164 5H5.71643C4.47379 5 3.46643 6.04467 3.46643 7.33333V16.6667C3.46643 17.9553 4.47379 19 5.71643 19Z" stroke="white" stroke-width="1.5" stroke-linecap="round" stroke-linejoin="round" fill="transparent" />
        </g>
    </symbol>

    <symbol id="phone-icon" viewBox="0 0 25 24">
        <g>
            <path d="M21.1298 18.771C21.1298 18.771 19.9711 19.909 19.6872 20.2427C19.2246 20.7363 18.6796 20.9693 17.9652 20.9693C17.8965 20.9693 17.8232 20.9693 17.7545 20.9648C16.3944 20.8779 15.1304 20.3478 14.1824 19.8953C11.5902 18.643 9.31414 16.8652 7.42272 14.612C5.86105 12.7336 4.81687 10.9969 4.12534 9.13217C3.69943 7.99415 3.54372 7.1075 3.61241 6.27113C3.65821 5.7364 3.8643 5.29308 4.24441 4.91374L5.80609 3.35526C6.03049 3.14502 6.26864 3.03076 6.5022 3.03076C6.79072 3.03076 7.02429 3.20443 7.17084 3.35069C7.17542 3.35526 7.18 3.35983 7.18458 3.3644C7.46394 3.62491 7.72956 3.89456 8.00892 4.18249C8.15089 4.32874 8.29744 4.47499 8.44399 4.62581L9.69425 5.87351C10.1797 6.35797 10.1797 6.80586 9.69425 7.29032C9.56144 7.42286 9.43321 7.5554 9.3004 7.68337C8.9157 8.07642 9.2179 7.77483 8.81947 8.13132C8.81031 8.14046 8.80115 8.14503 8.79657 8.15417C8.40272 8.54722 8.47599 8.93113 8.55843 9.19164C8.56301 9.20535 8.56759 9.21906 8.57217 9.23277C8.89732 10.0189 9.35529 10.7593 10.0514 11.6413L10.056 11.6459C11.32 13.1998 12.6527 14.411 14.1228 15.3387C14.3105 15.4576 14.5029 15.5536 14.6861 15.645C14.8509 15.7272 15.0066 15.8049 15.1395 15.8872C15.1578 15.8963 15.1761 15.91 15.1944 15.9192C15.3501 15.9969 15.4967 16.0334 15.6478 16.0334C16.0279 16.0334 16.2661 15.7958 16.3439 15.7181L17.2416 14.8222C17.3973 14.6668 17.6446 14.4795 17.9331 14.4795C18.2171 14.4795 18.4506 14.6577 18.5926 14.8131C18.5972 14.8177 18.5972 14.8177 18.6018 14.8222L21.1252 17.3405C21.5969 17.8067 21.1298 18.771 21.1298 18.771Z" stroke="white" stroke-width="1.5" stroke-linecap="round" stroke-linejoin="round" fill="transparent"/>
        </g>
    </symbol>
</svg>