<svg version="1.1" xmlns="http://www.w3.org/2000/svg" xmlns:xlink="http://www.w3.org/1999/xlink">
    <symbol id="planet-icon" viewBox="0 0 24 24">
        <g>
            <path d="M4.125 9C3.71079 9 3.375 9.33579 3.375 9.75C3.375 10.1642 3.71079 10.5 4.125 10.5V9ZM19.875 10.5C20.2892 10.5 20.625 10.1642 20.625 9.75C20.625 9.33579 20.2892 9 19.875 9V10.5ZM4.21948 14.0624C3.80527 14.0624 3.46948 14.3982 3.46948 14.8124C3.46948 15.2266 3.80527 15.5624 4.21948 15.5624V14.0624ZM19.9695 15.5624C20.3837 15.5624 20.7195 15.2266 20.7195 14.8124C20.7195 14.3982 20.3837 14.0624 19.9695 14.0624V15.5624ZM20.25 12C20.25 16.5563 16.5563 20.25 12 20.25V21.75C17.3848 21.75 21.75 17.3848 21.75 12H20.25ZM12 20.25C7.44365 20.25 3.75 16.5563 3.75 12H2.25C2.25 17.3848 6.61522 21.75 12 21.75V20.25ZM3.75 12C3.75 7.44365 7.44365 3.75 12 3.75V2.25C6.61522 2.25 2.25 6.61522 2.25 12H3.75ZM12 3.75C16.5563 3.75 20.25 7.44365 20.25 12H21.75C21.75 6.61522 17.3848 2.25 12 2.25V3.75ZM12 20.25C11.7045 20.25 11.3639 20.1163 10.9886 19.7535C10.6098 19.3873 10.2344 18.8211 9.90288 18.0633C9.24079 16.55 8.8125 14.4069 8.8125 12H7.3125C7.3125 14.5637 7.76565 16.9206 8.52865 18.6646C8.90966 19.5355 9.38272 20.2873 9.94605 20.8319C10.513 21.3801 11.2082 21.75 12 21.75V20.25ZM8.8125 12C8.8125 9.59314 9.24079 7.45001 9.90288 5.93665C10.2344 5.17886 10.6098 4.61271 10.9886 4.24648C11.3639 3.88373 11.7045 3.75 12 3.75V2.25C11.2082 2.25 10.513 2.61995 9.94605 3.16805C9.38272 3.71267 8.90966 4.46454 8.52865 5.33542C7.76565 7.07943 7.3125 9.4363 7.3125 12H8.8125ZM12 21.75C12.7918 21.75 13.487 21.3801 14.054 20.8319C14.6173 20.2873 15.0903 19.5355 15.4714 18.6646C16.2344 16.9206 16.6875 14.5637 16.6875 12H15.1875C15.1875 14.4069 14.7592 16.55 14.0971 18.0633C13.7656 18.8211 13.3902 19.3873 13.0114 19.7535C12.6361 20.1163 12.2955 20.25 12 20.25V21.75ZM16.6875 12C16.6875 9.4363 16.2344 7.07943 15.4714 5.33542C15.0903 4.46454 14.6173 3.71267 14.054 3.16805C13.487 2.61995 12.7918 2.25 12 2.25V3.75C12.2955 3.75 12.6361 3.88373 13.0114 4.24648C13.3902 4.61271 13.7656 5.17886 14.0971 5.93665C14.7592 7.45001 15.1875 9.59314 15.1875 12H16.6875ZM4.125 10.5H19.875V9H4.125V10.5ZM4.21948 15.5624H19.9695V14.0624H4.21948V15.5624Z" />
        </g>
    </symbol>

    <symbol id="next-icon" viewBox="0 0 18 18">
        <g>
            <path d="M9.40434 2.6543L15.75 8.99995L9.40434 15.3456" stroke="white" stroke-width="2" stroke-linecap="round" stroke-linejoin="round"/>
            <path d="M15.7499 9L2.25 9" stroke="white" stroke-width="2" stroke-linecap="round" stroke-linejoin="round"/>
        </g>
    </symbol>
</svg>