<svg width="304" height="231" viewBox="0 0 304 231" fill="none" xmlns="http://www.w3.org/2000/svg">
<path d="M88.4962 74.4144C104.407 57.7793 132.271 48.6132 177.005 67.3304C221.739 86.0476 199.157 88.5072 228.834 114.389C258.512 140.27 278.538 109.275 292.728 125.797C306.917 142.32 296.809 166.162 283.803 178.294C270.258 190.926 283.803 202.799 283.803 202.799H53.5812C53.5812 202.799 58.606 178.45 36.1785 174.694C13.7511 170.937 -0.026741 123.102 36.1785 111.932C72.3826 100.761 77.3717 86.0451 88.4962 74.4144Z" fill="url(#paint0_radial_239_7)"/>
<path d="M190.203 139.286C189.906 139.286 189.665 139.045 189.665 138.748V133.229C189.665 130.934 187.914 129.068 185.761 129.068C183.608 129.068 181.857 130.936 181.857 133.229V138.748C181.857 139.045 181.616 139.286 181.319 139.286C181.021 139.286 180.78 139.045 180.78 138.748V133.229C180.78 130.34 183.014 127.992 185.759 127.992C188.506 127.992 190.738 130.34 190.738 133.229V138.748C190.741 139.046 190.5 139.286 190.203 139.286Z" fill="#CACEED"/>
<path d="M197.37 136.411H172.477V168.222H197.37V136.411Z" fill="#6880E2"/>
<path d="M195.106 136.411H170.213V168.223H195.106V136.411Z" fill="#90A0F0"/>
<path d="M187.411 139.286C187.114 139.286 186.873 139.045 186.873 138.748V133.229C186.873 130.934 185.123 129.068 182.97 129.068C180.817 129.068 179.066 130.936 179.066 133.229V138.748C179.066 139.045 178.825 139.286 178.528 139.286C178.231 139.286 177.99 139.045 177.99 138.748V133.229C177.99 130.34 180.224 127.992 182.969 127.992C185.714 127.992 187.947 130.34 187.947 133.229V138.748C187.948 139.046 187.708 139.286 187.411 139.286Z" fill="#7890B5"/>
<path d="M107.425 192.14L67.1522 218.223C63.5579 220.552 60.5272 217.448 60.5272 211.201V14.4916C60.5272 7.00853 64.1444 3.28419 68.4017 6.04077L106.703 30.8462C109.086 32.3902 110.953 37.8766 110.953 43.1539V181.877C110.953 186.283 109.398 190.862 107.425 192.14Z" fill="url(#paint1_linear_239_7)"/>
<path d="M98.914 192.14L67.1522 218.223C63.5579 220.551 52.0165 217.448 52.0165 211.2V14.4911C52.0165 7.008 63.8958 3.13195 68.1531 5.88853L98.1924 30.8469C100.575 32.391 102.442 37.8773 102.442 43.1546V181.877C102.442 186.283 100.888 190.861 98.914 192.14Z" fill="url(#paint2_linear_239_7)"/>
<path d="M67.1262 214.175C64.9051 215.567 63.0525 213.588 63.0525 209.729V13.7236C63.0525 9.86418 64.9051 7.88536 67.1262 9.27767L107.15 34.3687C108.387 35.1439 109.375 38.0356 109.375 40.8266V182.625C109.375 185.417 108.387 188.307 107.15 189.083L67.1262 214.175Z" fill="white"/>
<path d="M109.374 40.8266C109.374 38.0356 108.386 35.1439 107.149 34.3687L67.1251 9.27767C64.904 7.88536 63.0515 9.86418 63.0515 13.7236V209.73C63.0515 211.741 63.5615 213.224 64.3571 214.003C70.6212 190.061 97.7917 86.1941 109.373 41.5865L109.374 40.8266Z" fill="white"/>
<path d="M175.507 152.369C175.231 152.369 175.006 152.146 175.006 151.868V146.726C175.006 144.589 173.374 142.849 171.37 142.849C169.364 142.849 167.734 144.589 167.734 146.726V151.868C167.734 152.146 167.509 152.369 167.233 152.369C166.956 152.369 166.731 152.146 166.731 151.868V146.726C166.731 144.035 168.812 141.847 171.37 141.847C173.928 141.847 176.008 144.035 176.008 146.726V151.868C176.008 152.146 175.784 152.369 175.507 152.369Z" fill="#CACEED"/>
<path d="M182.185 149.69H158.991V179.329H182.185V149.69Z" fill="#D3594C"/>
<path d="M180.075 149.69H156.882V179.329H180.075V149.69Z" fill="#F4643C"/>
<path d="M172.907 152.369C172.63 152.369 172.406 152.146 172.406 151.868V146.726C172.406 144.589 170.774 142.849 168.77 142.849C166.763 142.849 165.132 144.589 165.132 146.726V151.868C165.132 152.146 164.908 152.369 164.631 152.369C164.354 152.369 164.13 152.146 164.13 151.868V146.726C164.13 144.035 166.211 141.847 168.77 141.847C171.327 141.847 173.408 144.035 173.408 146.726V151.868C173.408 152.146 173.184 152.369 172.907 152.369Z" fill="#7890B5"/>
<path d="M192.494 151.19C192.203 151.19 191.967 150.955 191.967 150.663V145.255C191.967 143.007 190.253 141.179 188.144 141.179C186.035 141.179 184.319 143.007 184.319 145.255V150.663C184.319 150.955 184.083 151.19 183.792 151.19C183.5 151.19 183.266 150.955 183.266 150.663V145.255C183.266 142.427 185.455 140.125 188.144 140.125C190.833 140.125 193.022 142.426 193.022 145.255V150.663C193.021 150.955 192.785 151.19 192.494 151.19Z" fill="#CACEED"/>
<path d="M199.515 148.375H175.124V179.545H199.515V148.375Z" fill="#DFA518"/>
<path d="M197.298 148.375H172.907V179.545H197.298V148.375Z" fill="#FFEC1D"/>
<path d="M189.759 151.19C189.468 151.19 189.232 150.955 189.232 150.663V145.255C189.232 143.007 187.516 141.179 185.407 141.179C183.298 141.179 181.583 143.007 181.583 145.255V150.663C181.583 150.955 181.347 151.19 181.057 151.19C180.766 151.19 180.53 150.955 180.53 150.663V145.255C180.53 142.427 182.719 140.125 185.408 140.125C188.098 140.125 190.288 142.426 190.288 145.255V150.663C190.286 150.955 190.051 151.19 189.759 151.19Z" fill="#7890B5"/>
<path d="M198.413 179.963H157.331C156.933 179.963 156.593 179.673 156.531 179.282L151.601 148.265C151.563 148.022 151.635 147.778 151.799 147.595C151.963 147.413 152.19 147.325 152.442 147.328L210.779 150.24C211.046 150.254 211.288 150.397 211.427 150.622C211.567 150.849 211.588 151.131 211.479 151.376L199.155 179.481C199.025 179.773 198.734 179.963 198.413 179.963ZM158.023 178.344H197.884L209.524 151.799L153.358 148.994L158.023 178.344Z" fill="#276096"/>
<path d="M192.454 179.962C192.359 179.962 192.265 179.947 192.172 179.913C191.751 179.757 191.538 179.292 191.694 178.872L202.266 150.382C202.422 149.962 202.895 149.747 203.308 149.904C203.728 150.059 203.941 150.525 203.786 150.944L193.213 179.433C193.092 179.761 192.782 179.962 192.454 179.962Z" fill="#276096"/>
<path d="M187.425 179.963C187.367 179.963 187.31 179.957 187.251 179.945C186.814 179.849 186.537 179.418 186.63 178.982L192.897 150.026C192.993 149.588 193.424 149.318 193.861 149.406C194.297 149.501 194.575 149.932 194.481 150.368L188.214 179.324C188.132 179.705 187.797 179.963 187.425 179.963Z" fill="#276096"/>
<path d="M182.186 179.962C181.679 179.928 181.344 179.539 181.377 179.093L183.538 149.672C183.572 149.227 183.976 148.895 184.405 148.925C184.852 148.958 185.187 149.345 185.154 149.792L182.993 179.213C182.962 179.638 182.606 179.962 182.186 179.962Z" fill="#276096"/>
<path d="M176.814 179.962C176.378 179.962 176.019 179.617 176.005 179.178L175.074 149.295C175.06 148.848 175.411 148.473 175.858 148.459C176.348 148.449 176.679 148.797 176.693 149.244L177.624 179.126C177.639 179.572 177.287 179.947 176.84 179.961H176.814V179.962Z" fill="#276096"/>
<path d="M172.04 179.962C171.651 179.962 171.309 179.682 171.242 179.286L166.114 148.921C166.038 148.48 166.335 148.063 166.778 147.988C167.22 147.929 167.637 148.211 167.711 148.654L172.839 179.018C172.914 179.459 172.617 179.876 172.175 179.951C172.129 179.958 172.084 179.962 172.04 179.962Z" fill="#276096"/>
<path d="M165.462 179.963C165.084 179.963 164.744 179.698 164.668 179.311L158.603 148.598C158.516 148.159 158.802 147.732 159.24 147.646C159.676 147.551 160.103 147.843 160.193 148.283L166.258 178.997C166.344 179.435 166.059 179.862 165.62 179.948C165.567 179.959 165.514 179.963 165.462 179.963Z" fill="#276096"/>
<path d="M206.454 161.627C206.425 161.627 154.097 159.792 154.097 159.792C153.649 159.777 153.3 159.402 153.315 158.953C153.331 158.507 153.723 158.163 154.153 158.173L206.482 160.008C206.93 160.023 207.279 160.398 207.264 160.847C207.247 161.284 206.888 161.627 206.454 161.627Z" fill="#276096"/>
<path d="M202.131 171.481C202.099 171.481 155.668 169.712 155.668 169.712C155.222 169.695 154.873 169.318 154.889 168.872C154.906 168.426 155.297 168.089 155.73 168.093L202.159 169.862C202.605 169.879 202.955 170.256 202.938 170.702C202.923 171.139 202.565 171.481 202.131 171.481Z" fill="#276096"/>
<path d="M157.399 202.854C160.159 202.854 162.397 200.678 162.397 197.994C162.397 195.309 160.159 193.133 157.399 193.133C154.638 193.133 152.401 195.309 152.401 197.994C152.401 200.678 154.638 202.854 157.399 202.854Z" fill="#232F54"/>
<path d="M189.237 197.993C189.237 195.309 191.475 193.134 194.235 193.134C196.996 193.134 199.233 195.309 199.233 197.993C199.233 200.677 196.996 202.852 194.235 202.852C191.475 202.852 189.237 200.677 189.237 197.993Z" fill="#232F54"/>
<path d="M204.882 192.691H152.4C151.859 192.691 151.353 192.421 151.052 191.971C150.751 191.521 150.695 190.949 150.902 190.451L155.658 178.955L150.818 148.503L148.69 141.582L130.533 134.835C129.693 134.524 129.267 133.59 129.578 132.751C129.89 131.912 130.822 131.48 131.662 131.798L150.568 138.823C151.041 138.998 151.404 139.384 151.553 139.866L153.95 147.66C153.973 147.731 153.989 147.805 154.001 147.882L158.931 178.899C158.978 179.194 158.941 179.497 158.827 179.773L154.824 189.45H204.882C205.777 189.45 206.503 190.177 206.503 191.072C206.503 191.966 205.777 192.691 204.882 192.691Z" fill="#276096"/>
<path d="M156.604 200.031H156.482C154.944 200.031 154.266 198.819 154.967 197.324L157.901 191.072H163.592L160.659 197.324C159.957 198.819 158.142 200.031 156.604 200.031Z" fill="#276096"/>
<path d="M193.578 200.031H193.456C191.918 200.031 191.24 198.819 191.941 197.324L194.875 191.072H200.566L197.632 197.324C196.931 198.819 195.116 200.031 193.578 200.031Z" fill="#276096"/>
<path d="M86.6624 97.4936C83.2951 98.3836 83.3333 101.621 86.3079 107.845C89.2825 114.071 94.4196 117.859 97.4324 120.562C102.137 124.784 126.602 130.89 126.602 130.89L126.768 127.492C126.768 127.492 107.633 120.865 103.185 118.146C99.0746 115.635 94.6249 105.978 92.4803 101.824C90.518 98.0215 88.1108 97.1111 86.6624 97.4936Z" fill="#F3A787"/>
<path d="M124.982 127.141C124.982 127.141 126.835 127.566 128.019 127.757C129.202 127.948 129.323 128.04 129.616 128.728C130.324 130.394 129.155 132.961 128.706 133.195C127.514 133.811 128.062 131.922 127.333 131.613C126.603 131.303 125.384 130.272 125.384 130.272L124.982 127.141Z" fill="#F3A787"/>
<path d="M88.8998 135.16L81.4844 137.18L87.7574 154.61L109.969 197.183L112.606 196.234C112.606 196.234 111.749 189.065 107.351 176.841C102.95 164.617 88.8998 135.16 88.8998 135.16Z" fill="#F2CBB0"/>
<path d="M85.0484 128.914C85.0484 128.914 84.2924 131.249 82.2855 136.923C80.2773 142.598 78.9296 153.364 77.5985 160.962C76.2674 168.561 71.0985 194.298 71.0985 194.298L74.0833 194.88C74.0833 194.88 79.9025 179.196 83.5516 168.189C87.2007 157.181 90.5539 148.46 90.5539 148.46L90.4889 149.604L94.0335 131.421L85.0484 128.914Z" fill="#F2CBB0"/>
<path d="M111.471 193.91C111.471 193.91 114.111 194.805 115.59 194.648C117.069 194.492 119.125 193.261 119.63 193.614C120.134 193.968 117.18 196.015 114.49 196.757C111.8 197.499 110.794 199.038 110.472 198.124C110.151 197.21 109.727 196.569 109.727 196.569L111.471 193.91Z" fill="#F2CBB0"/>
<path d="M74.2127 194.533C74.2127 194.533 73.8557 197.017 75.554 198.49C76.6811 199.467 76.7958 199.582 76.7181 200.194C76.639 200.805 75.1026 200.083 73.1748 198.497C71.02 196.724 69.4365 196.285 70.0969 195.576C70.7574 194.867 71.1335 194.197 71.1335 194.197L74.2127 194.533Z" fill="#F2CBB0"/>
<path d="M74.5493 196.457C74.5493 196.457 74.1349 196.661 73.3329 196.305C72.531 195.948 71.0481 194.177 71.0481 194.177C71.0481 194.177 70.3469 194.502 69.7298 195.478C69.5168 195.815 69.4199 196.186 69.4199 196.186C69.4199 196.186 74.9203 199.894 75.6764 200.465C76.4325 201.037 77.9485 200.85 77.2103 199.711C76.472 198.571 74.5493 196.457 74.5493 196.457Z" fill="#F4643C"/>
<path d="M113.647 194.724C113.647 194.724 113.649 195.392 112.972 195.93C112.295 196.47 109.728 196.567 109.728 196.567C109.728 196.567 110.208 197.965 110.357 198.335C110.507 198.705 110.838 198.941 110.838 198.941C110.838 198.941 118.563 195.303 119.407 194.905C120.251 194.507 120.777 193.086 119.441 193.202C118.106 193.317 113.647 194.724 113.647 194.724Z" fill="#F4643C"/>
<path d="M99.7443 128.883C99.7443 128.883 96.5555 102.235 96.2099 99.7181C95.8644 97.2 89.8846 96.0015 88.3635 98.4278C86.8424 100.855 85.9512 116.199 80.5706 137.47C77.925 147.929 73.2482 163.607 73.2482 163.607C73.2482 163.607 87.7949 168.861 93.118 167.838C105.825 165.395 106.852 162.974 106.852 162.974C106.852 162.974 108.615 155.204 99.7443 128.883Z" fill="url(#paint3_linear_239_7)"/>
<path d="M94.2808 92.8749L94.0449 97.7378L90.8076 97.1003L91.9692 92.2922L94.2808 92.8749Z" fill="#F2CBB0"/>
<path d="M94.7412 93.5913C94.7412 93.5913 93.9405 94.1281 93.3501 94.5425C92.7598 94.9569 91.4618 95.4312 91.4618 95.4312L92.0432 93.46L94.7412 93.5913Z" fill="#F3A787"/>
<path d="M98.2169 80.7333C98.2169 80.7333 98.9717 81.0801 99.182 82.3755C99.3924 83.6709 97.9963 85.2864 97.9963 85.2864L96.799 82.6586L98.2169 80.7333Z" fill="#F4643C"/>
<path d="M93.3987 104.589C90.0314 105.479 90.0697 108.716 93.0443 114.941C96.0189 121.166 101.156 124.955 104.167 127.658C108.872 131.879 128.992 134.238 128.992 134.238L129.158 130.84C129.158 130.84 114.368 127.958 109.92 125.24C105.81 122.727 101.36 113.071 99.2153 108.917C97.2544 105.117 94.8471 104.205 93.3987 104.589Z" fill="#F2CBB0"/>
<path d="M127.777 130.543C127.777 130.543 129.631 130.968 130.814 131.159C131.998 131.35 132.119 131.442 132.412 132.131C133.12 133.796 131.95 136.364 131.502 136.596C130.31 137.213 130.858 135.323 130.128 135.013C129.399 134.704 128.18 133.673 128.18 133.673L127.777 130.543Z" fill="#F2CBB0"/>
<path d="M96.0571 80.2363C93.8755 79.7607 88.2922 79.7109 88.268 84.1072C88.2438 88.5034 89.6973 92.2329 91.1036 93.003C92.51 93.7731 94.8879 94.1109 94.8879 94.1109C94.8879 94.1109 96.6844 92.7275 97.5552 90.1979C97.6623 89.8855 98.3942 90.1533 98.4681 89.8065C98.5484 89.4291 97.9683 88.4333 97.9976 88.0164C98.055 87.1672 98.3903 86.9084 98.3304 86.3104C98.1379 84.4068 98.004 82.9151 97.4634 81.8185C96.7711 80.4186 96.0571 80.2363 96.0571 80.2363Z" fill="#F2CBB0"/>
<path d="M96.9203 87.7003C96.6614 87.903 96.933 88.3811 97.2671 88.0267C97.6011 87.6722 96.9203 87.7003 96.9203 87.7003Z" fill="#232F54"/>
<path d="M96.0598 87.234C95.9208 87.2315 95.8176 87.1193 95.8214 86.988C95.8316 86.6386 96.0203 86.033 97.1589 85.9182C97.3068 85.8813 97.4075 85.9998 97.4215 86.1324C97.4356 86.2625 97.3387 86.3811 97.2073 86.3925C96.6157 86.4525 96.3097 86.659 96.2982 87.0045C96.2944 87.1308 96.1886 87.2353 96.0598 87.234Z" fill="#232F54"/>
<path d="M95.7167 91.711C95.6287 91.6995 94.5743 91.4968 94.0681 90.4729C94.0094 90.3569 94.0579 90.2128 94.1765 90.1542C94.2912 90.0942 94.4353 90.1427 94.4952 90.2625C94.893 91.0658 95.7613 91.2367 95.7613 91.2367C95.8901 91.2622 95.9755 91.3859 95.9513 91.5146C95.9296 91.6294 95.8289 91.711 95.7167 91.711Z" fill="#232F54"/>
<path d="M92.316 98.9862C92.2127 98.7184 92.0878 98.4583 91.9029 98.2288C90.1906 96.1021 93.0032 91.7925 93.3297 90.0432C93.6573 88.2939 93.9111 85.5398 95.7598 84.8654C97.6086 84.1896 98.6911 83.0663 98.6911 83.0663C98.6911 83.0663 99.1845 81.6192 98.4067 79.9336C97.629 78.2481 94.9234 76.0665 90.3397 75.7248C87.6903 75.5285 85.6196 77.019 84.2809 78.2532C83.3042 79.1533 82.5252 80.4679 81.7245 82.2414C81.6046 82.5053 81.4733 82.6966 81.3471 82.9235C79.789 83.7 78.0206 84.2738 76.1029 84.2228C70.716 84.0812 67.4392 93.0217 67.4838 95.9376C67.5833 102.419 74.5614 102.486 72.6553 105.732C70.7504 108.978 70.8002 113.056 72.7943 114.725C74.7871 116.394 86.5172 121.363 90.5412 114.339C94.5639 107.315 97.3829 110.688 98.0574 106.24C98.5738 102.848 94.6302 100.939 92.316 98.9862Z" fill="#F4643C"/>
<path d="M282.076 146.614H254.949V184.746H284.788L282.076 146.614Z" fill="#7890B5"/>
<path d="M282.077 146.614H252.237V184.748H282.077V146.614Z" fill="#D128A1"/>
<path d="M272.853 150.059C272.497 150.059 272.209 149.769 272.209 149.415V142.799C272.209 140.049 270.11 137.812 267.531 137.812C264.952 137.812 262.852 140.049 262.852 142.799V149.415C262.852 149.771 262.563 150.059 262.208 150.059C261.852 150.059 261.563 149.769 261.563 149.415V142.799C261.563 139.337 264.24 136.523 267.531 136.523C270.822 136.523 273.498 139.339 273.498 142.799V149.415C273.497 149.771 273.209 150.059 272.853 150.059Z" fill="#7890B5"/>
<path d="M236.589 102.99L236.691 100.46L238.151 94.9837L244.088 97.4368L243.83 102.254L244.882 105.758L243.763 108.688L242.207 111.054L242.142 110.941L238.878 107.226L236.589 102.99Z" fill="#F2CBB0"/>
<path d="M243.885 100.937C243.885 100.937 242.155 102.479 240.599 102.709C239.044 102.938 236.745 100.252 236.745 100.252L237.543 97.3267L243.885 100.937Z" fill="#F3A787"/>
<path d="M246.261 88.7817C246.261 88.7817 247.488 97.2924 245.468 99.8883C243.449 102.484 240.492 101.691 238.617 99.3107C236.742 96.9303 235.444 93.2519 236.598 89.6461C237.752 86.0404 240.781 84.5971 242.872 85.9677C244.963 87.3396 246.261 88.7817 246.261 88.7817Z" fill="#F2CBB0"/>
<path d="M250.091 90.5939C249.122 90.27 247.487 91.6751 246.495 91.9186C245.505 92.1621 244.377 91.758 243.574 91.4316C242.965 91.1855 241.985 90.766 241.141 90.4026C240.368 90.0699 239.506 90.627 239.49 91.4685L239.45 93.4792H238.859C238.859 93.4792 238.201 91.4762 237.638 91.5132C237.076 91.5489 236.657 92.2068 236.746 92.7844C236.788 93.061 237.016 94.6369 237.692 95.1648C238.412 95.7271 237.01 96.566 237.01 96.566C237.01 96.566 236.416 95.8049 236.069 95.0845C235.723 94.3628 235.734 92.2297 236.059 90.2815C236.384 88.3346 237.332 85.9184 238.043 84.9443C238.753 83.9702 239.949 84.0416 242.262 84.8448C244.383 85.5818 245.894 85.0986 247.137 84.4496C248.38 83.8006 250.06 83.209 251.595 84.0658C252.599 84.6243 252.191 91.2951 250.091 90.5939Z" fill="#232F54"/>
<path d="M238.682 84.7098C238.682 84.7098 238.677 84.4191 238.97 84.0927C239.263 83.7663 239.86 83.575 240.399 83.626C241.024 83.6847 241.475 84.0978 241.682 84.4472C241.891 84.8029 241.928 85.0681 241.928 85.0681C241.928 85.0681 241.776 84.8488 241.502 84.5925C241.236 84.3439 240.81 84.0736 240.384 84.0455C239.894 84.0137 239.44 84.1131 239.133 84.2903C238.826 84.4701 238.682 84.7098 238.682 84.7098Z" fill="#232F54"/>
<path d="M237.345 86.8777C237.345 86.8777 237.139 86.6915 237.003 86.2899C236.87 85.8946 236.92 85.2559 237.266 84.7982C237.378 84.649 237.413 84.6005 237.558 84.4768C237.683 84.3685 237.832 84.2945 237.992 84.2818C238.325 84.255 238.55 84.4513 238.694 84.589C238.965 84.9103 239.042 85.1641 239.042 85.1641C239.042 85.1641 238.864 84.9575 238.552 84.7586C238.402 84.663 238.204 84.5763 238.043 84.6286C237.969 84.6579 237.876 84.6898 237.816 84.7599C237.762 84.7956 237.64 84.9601 237.609 85.0238C237.348 85.4216 237.255 85.8768 237.262 86.2465C237.269 86.6138 237.345 86.8777 237.345 86.8777Z" fill="#232F54"/>
<path d="M243.845 98.5965C242.516 98.5965 241.282 97.1506 241.229 97.0881C241.153 96.9963 241.164 96.8587 241.256 96.7834C241.349 96.7057 241.484 96.7197 241.561 96.8089C241.572 96.8229 242.717 98.1655 243.845 98.1655C243.964 98.1655 244.061 98.2612 244.061 98.381C244.061 98.5021 243.963 98.5965 243.845 98.5965Z" fill="#232F54"/>
<path d="M245.075 95.4682C245.075 95.736 245.175 95.9527 245.298 95.9527C245.422 95.9527 245.521 95.736 245.521 95.4682C245.521 95.2005 245.422 94.9837 245.298 94.9837C245.175 94.9837 245.075 95.2005 245.075 95.4682Z" fill="#232F54"/>
<path d="M242.65 94.9838C242.65 95.2515 242.75 95.4683 242.874 95.4683C242.997 95.4683 243.097 95.2515 243.097 94.9838C243.097 94.716 242.997 94.4993 242.874 94.4993C242.75 94.4993 242.65 94.716 242.65 94.9838Z" fill="#232F54"/>
<path d="M241.95 93.5614C241.913 93.5614 241.875 93.5538 241.84 93.5321C241.737 93.4722 241.703 93.3396 241.764 93.2363C242.095 92.6676 243.003 92.3629 243.461 92.4407C243.579 92.4598 243.658 92.5708 243.639 92.6893C243.62 92.8079 243.51 92.8933 243.391 92.8678C243.074 92.8232 242.362 93.068 242.136 93.4544C242.097 93.5245 242.024 93.5614 241.95 93.5614Z" fill="#232F54"/>
<path d="M246.33 94.2292C246.242 94.2292 246.16 94.1769 246.128 94.0889C246.028 93.8174 245.483 93.2933 244.999 93.2857C244.88 93.2857 244.784 93.1862 244.785 93.0664C244.788 92.9478 244.883 92.8547 245.002 92.8547C245.662 92.8624 246.374 93.5088 246.533 93.9372C246.575 94.0494 246.518 94.1744 246.406 94.2164C246.381 94.2254 246.356 94.2292 246.33 94.2292Z" fill="#232F54"/>
<path d="M243.038 137.88L234.481 138.984L235.429 155.105L253.993 199.752L257.081 199.138C257.081 199.138 257.551 192.162 255.121 179.941C252.69 167.72 243.038 137.88 243.038 137.88Z" fill="#232F54"/>
<path d="M225.17 137.289C225.17 137.289 224.445 139.535 222.49 144.992C220.536 150.449 219.579 160.822 218.48 168.14C217.381 175.458 212.919 200.239 212.919 200.239L216.286 200.822C216.286 200.822 221.989 185.739 225.506 175.152C229.021 164.564 232.843 159.295 232.843 159.295L237.699 152.331L235.342 139.772L225.17 137.289Z" fill="#232F54"/>
<path d="M264.157 135.3C264.157 135.3 266.163 135.438 267.221 135.777C268.279 136.115 267.82 139.065 267.507 139.166C267.193 139.267 267.42 139.057 267.025 138.408C266.629 137.759 263.707 137.59 263.707 137.59L264.157 135.3Z" fill="#F2CBB0"/>
<path d="M240.735 106.797C236.633 106.283 235.496 106.644 235.805 114.914C236.113 123.183 237.236 129.529 241.531 131.701C247.892 134.919 264.272 137.826 264.272 137.826L264.772 135.265C264.772 135.265 253.769 128.577 248.084 125.227C243.416 122.477 245.778 116.551 245.398 110.961C245.051 105.847 242.5 107.019 240.735 106.797Z" fill="url(#paint4_linear_239_7)"/>
<path d="M246.749 109.085C246.213 107.341 245.404 105.789 244.431 104.47C244.191 104.666 243 105.434 240.315 104.098C237.597 102.745 236.844 100.911 236.716 100.54C236.67 100.546 236.626 100.537 236.58 100.545C232.182 101.25 225.619 113.158 224.537 120.602C223.455 128.045 223.815 139.64 223.815 139.64C223.815 139.64 231.315 141.051 235.93 140.816C240.546 140.581 243.574 139.64 243.574 139.64C243.574 139.64 248.407 114.491 246.749 109.085Z" fill="url(#paint5_linear_239_7)"/>
<path d="M240.429 156.52H213.55V194.305H243.116L240.429 156.52Z" fill="#D3594C"/>
<path d="M240.429 156.52H210.863V194.304H240.429V156.52Z" fill="#F4643C"/>
<path d="M231.291 159.934C230.939 159.934 230.652 159.648 230.652 159.295V152.74C230.652 150.014 228.572 147.798 226.016 147.798C223.46 147.798 221.38 150.016 221.38 152.74V159.295C221.38 159.648 221.093 159.934 220.741 159.934C220.389 159.934 220.103 159.648 220.103 159.295V152.74C220.103 149.31 222.756 146.521 226.016 146.521C229.278 146.521 231.93 149.31 231.93 152.74V159.295C231.93 159.65 231.643 159.934 231.291 159.934Z" fill="#7890B5"/>
<path d="M216.703 199.528C216.703 199.528 216.395 199.765 215.416 199.789C214.436 199.814 213.118 199.191 213.118 199.191C213.118 199.191 212.603 199.766 212.521 200.872C212.493 201.254 212.598 201.618 212.598 201.618C212.598 201.618 220.04 202.907 221.088 203.089C222.138 203.271 223.526 202.477 222.189 201.794C220.851 201.108 216.703 199.528 216.703 199.528Z" fill="#6880E2"/>
<path d="M256.983 198.165C256.983 198.165 256.786 198.796 255.895 199.168C255.003 199.541 253.834 199.435 253.834 199.435C253.834 199.435 253.939 200.853 253.988 201.231C254.038 201.611 254.325 201.901 254.325 201.901C254.325 201.901 263.735 200.029 264.762 199.825C265.79 199.621 266.782 198.384 265.311 198.222C263.838 198.06 256.983 198.165 256.983 198.165Z" fill="#6880E2"/>
<path d="M225.894 144.494C225.894 144.494 227.035 146.149 227.43 147.187C227.826 148.225 225.231 149.704 224.957 149.522C224.683 149.339 224.987 149.386 225.249 148.672C225.51 147.958 223.822 145.568 223.822 145.568L225.894 144.494Z" fill="#F2CBB0"/>
<path d="M238.234 105.189C236.04 101.618 232.007 102.846 225.183 108.564C218.359 114.283 213.691 119.369 214.602 124.188C215.951 131.329 223.988 146.158 223.988 146.158L226.483 144.856C226.483 144.856 225.105 131.76 224.302 125.065C223.644 119.567 230.19 117.503 234.692 113.504C238.813 109.843 239.177 106.724 238.234 105.189Z" fill="url(#paint6_linear_239_7)"/>
<path d="M16.7649 183.152C22.4808 183.715 27.8932 181.979 27.8881 175.397C27.8843 168.814 24.1344 167.232 25.3534 163.681C26.5723 160.129 28.4159 159.643 26.5072 156.801C24.5985 153.959 24.61 153.477 25.273 149.925C25.936 146.373 24.6457 143.208 22.5815 141.158C20.5172 139.108 21.6494 138.122 21.068 134.154C20.4879 130.186 18.4033 129.631 16.6399 126.744C14.8766 123.857 17.1869 120.995 14.744 119.274C12.3023 117.552 8.29878 116.629 7.78495 121.491C7.27112 126.352 10.0251 131.757 6.69864 134.518C3.37085 137.277 1.49913 139.228 4.52474 143.63C7.55034 148.033 9.80839 148.372 8.43903 152.222C7.07094 156.073 5.1597 155.823 6.52396 160.527C7.88822 165.229 10.1475 164.538 9.28181 167.951C8.41735 171.364 8.47346 180.117 11.7337 181.906C14.9939 183.695 15.9259 183.069 16.7649 183.152Z" fill="#387C67"/>
<path d="M15.205 180.417C21.6948 183.133 28.6538 183.045 31.0151 175.338C33.3765 167.63 29.5553 164.43 32.2596 160.71C34.9639 156.99 37.2971 157.083 36.0833 153.07C34.8695 149.056 35.0569 148.496 37.1097 144.577C39.1638 140.657 38.7902 136.489 37.1097 133.347C35.4292 130.204 37.1097 129.456 37.8569 124.604C38.604 119.751 36.3638 118.351 35.3362 114.337C34.3098 110.324 38.043 107.804 35.8028 104.911C33.5626 102.018 29.2072 99.4974 26.8586 105.004C24.5088 110.511 25.7901 117.83 20.903 119.863C16.0159 121.897 13.1216 123.507 15.0826 129.748C17.0423 135.991 19.563 137.2 16.5756 141.215C13.5895 145.23 11.4424 144.252 11.3493 150.248C11.2563 156.244 14.1493 156.246 11.9091 159.932C9.66887 163.618 6.58844 173.884 9.76195 177.151C12.9367 180.417 14.2525 180.02 15.205 180.417Z" fill="#6FC183"/>
<path d="M15.4133 185.665L14.7529 185.315C14.8192 185.189 21.49 172.427 25.1685 152.072C26.6589 143.824 26.636 136.524 26.6156 130.086C26.585 120.434 26.5633 113.461 31.7921 109.771L32.2231 110.38C27.3118 113.847 27.3334 120.657 27.3628 130.084C27.3832 136.555 27.4061 143.889 25.9041 152.204C22.2028 172.684 15.4809 185.536 15.4133 185.665Z" fill="#387C67"/>
<path d="M17.8467 179.676C17.7243 179.676 17.6044 179.616 17.533 179.505C17.5203 179.486 16.2376 177.496 14.7535 174.712C13.2541 171.904 12.2417 167.617 12.1984 167.437C12.1512 167.234 12.2774 167.036 12.4776 166.988C12.6778 166.934 12.8792 167.067 12.9264 167.266C12.9366 167.311 13.9579 171.64 15.4114 174.362C16.8789 177.116 18.1463 179.083 18.1591 179.102C18.27 179.274 18.2215 179.507 18.0481 179.616C17.9857 179.657 17.9168 179.676 17.8467 179.676Z" fill="#387C67"/>
<path d="M21.2559 170.138C21.1335 170.138 21.0149 170.078 20.9423 169.967C20.9295 169.948 19.6469 167.958 18.1627 165.175C16.6646 162.366 15.651 158.079 15.6076 157.899C15.5604 157.698 15.6854 157.498 15.8868 157.451C16.0921 157.396 16.2872 157.526 16.3357 157.729C16.3446 157.773 17.3684 162.102 18.8206 164.825C20.2895 167.578 21.5556 169.544 21.5683 169.563C21.6805 169.735 21.6308 169.967 21.4574 170.08C21.3962 170.118 21.3261 170.138 21.2559 170.138Z" fill="#387C67"/>
<path d="M23.5452 161.082C23.4228 161.082 23.3042 161.022 23.2316 160.911C23.2188 160.892 21.9361 158.904 20.4533 156.12C18.9539 153.311 17.9402 149.024 17.8982 148.844C17.8523 148.643 17.9759 148.443 18.1761 148.396C18.3789 148.341 18.5778 148.472 18.6249 148.674C18.6351 148.718 19.6577 153.047 21.1112 155.769C22.5787 158.524 23.8448 160.487 23.8576 160.507C23.9698 160.68 23.9201 160.911 23.7467 161.022C23.6855 161.063 23.6153 161.082 23.5452 161.082Z" fill="#387C67"/>
<path d="M25.6001 151.116C25.4764 151.116 25.3553 151.056 25.2852 150.944C25.275 150.926 24.2754 149.34 23.1215 147.119C21.9523 144.867 21.1618 141.442 21.1286 141.298C21.0827 141.097 21.2077 140.897 21.4091 140.852C21.6131 140.796 21.8108 140.931 21.8567 141.131C21.8643 141.166 22.6586 144.608 23.7832 146.772C24.9231 148.964 25.9061 150.527 25.9163 150.542C26.0272 150.717 25.975 150.948 25.8003 151.059C25.7365 151.098 25.6677 151.116 25.6001 151.116Z" fill="#387C67"/>
<path d="M26.8699 137.92C26.7462 137.92 26.6251 137.86 26.555 137.746C26.5448 137.728 25.5451 136.141 24.39 133.92C23.2208 131.669 22.4316 128.244 22.3984 128.101C22.3525 127.899 22.4775 127.699 22.6789 127.652C22.8842 127.607 23.0793 127.734 23.1264 127.934C23.1341 127.968 23.9271 131.412 25.0517 133.574C26.1928 135.766 27.1759 137.331 27.1848 137.346C27.2957 137.521 27.2435 137.751 27.0688 137.862C27.0076 137.902 26.9387 137.92 26.8699 137.92Z" fill="#387C67"/>
<path d="M26.8693 126.805C26.7328 126.805 26.6028 126.731 26.5365 126.601C26.511 126.553 25.9168 125.376 25.2883 123.767C24.6406 122.115 24.601 119.958 24.5985 119.867C24.5959 119.661 24.7604 119.491 24.967 119.488C25.1761 119.488 25.3431 119.651 25.3469 119.855C25.3469 119.877 25.3864 121.969 25.9831 123.495C26.599 125.07 27.2021 126.263 27.2021 126.263C27.2951 126.448 27.2212 126.671 27.0376 126.767C26.984 126.794 26.9267 126.805 26.8693 126.805Z" fill="#387C67"/>
<path d="M28.1467 115.67C27.8917 115.639 27.7489 115.45 27.7769 115.246C27.7846 115.19 27.9669 113.886 28.3685 112.204C28.7804 110.478 29.9776 108.686 30.0286 108.611C30.1446 108.434 30.3754 108.394 30.5475 108.508C30.7184 108.624 30.7643 108.856 30.6483 109.027C30.6368 109.045 29.4752 110.785 29.0953 112.379C28.7039 114.022 28.5177 115.347 28.5177 115.347C28.4909 115.534 28.3303 115.67 28.1467 115.67Z" fill="#387C67"/>
<path d="M19.432 175.712C19.3134 175.712 19.1961 175.656 19.1234 175.551C19.0087 175.38 19.052 175.147 19.2216 175.031C19.2407 175.017 21.1698 173.695 23.5885 171.727C25.9843 169.777 28.6019 166.184 28.6274 166.147C28.7485 165.98 28.9831 165.949 29.1488 166.064C29.3159 166.186 29.3528 166.419 29.2317 166.585C29.1233 166.734 26.53 170.295 24.0603 172.306C21.6148 174.296 19.6627 175.635 19.6423 175.649C19.5786 175.69 19.5046 175.712 19.432 175.712Z" fill="#387C67"/>
<path d="M22.7628 164.793C22.6442 164.793 22.5269 164.737 22.4555 164.633C22.3395 164.462 22.3828 164.229 22.5524 164.113C22.5715 164.098 24.4993 162.778 26.9193 160.809C29.3151 158.858 31.9327 155.265 31.9582 155.228C32.0793 155.061 32.3139 155.028 32.4796 155.145C32.6467 155.268 32.6836 155.501 32.5625 155.668C32.4541 155.817 29.8608 159.377 27.3911 161.389C24.9456 163.379 22.9935 164.718 22.9731 164.732C22.9094 164.772 22.8354 164.793 22.7628 164.793Z" fill="#387C67"/>
<path d="M24.815 155.106C24.6964 155.106 24.5791 155.05 24.5065 154.943C24.3917 154.774 24.4351 154.541 24.6046 154.425C24.6238 154.411 26.5516 153.092 28.9716 151.122C31.3673 149.171 33.9849 145.578 34.0104 145.541C34.1315 145.374 34.3687 145.341 34.5319 145.458C34.6989 145.581 34.7359 145.814 34.6148 145.981C34.5064 146.13 31.913 149.69 29.4433 151.702C26.9978 153.694 25.0458 155.031 25.0254 155.045C24.9629 155.085 24.889 155.106 24.815 155.106Z" fill="#387C67"/>
<path d="M27.077 143.579C26.9597 143.579 26.8436 143.524 26.771 143.419C26.6524 143.25 26.6932 143.018 26.8628 142.899C26.8781 142.889 28.3902 141.828 30.29 140.247C32.1643 138.69 34.2298 135.821 34.2502 135.792C34.37 135.625 34.6059 135.584 34.7717 135.707C34.94 135.827 34.9769 136.06 34.8584 136.227C34.7717 136.347 32.7176 139.203 30.7681 140.822C28.8429 142.422 27.3065 143.501 27.2924 143.512C27.2274 143.557 27.1522 143.579 27.077 143.579Z" fill="#387C67"/>
<path d="M27.2773 133.719C27.16 133.719 27.044 133.664 26.9713 133.559C26.8527 133.39 26.8935 133.158 27.0618 133.039C27.0771 133.029 28.5893 131.968 30.489 130.387C32.3659 128.826 34.4288 125.961 34.4492 125.932C34.5729 125.765 34.805 125.724 34.9707 125.847C35.139 125.967 35.176 126.2 35.0574 126.367C34.9694 126.487 32.9167 129.34 30.9672 130.962C29.0419 132.562 27.5055 133.641 27.4915 133.652C27.4265 133.697 27.3525 133.719 27.2773 133.719Z" fill="#387C67"/>
<path d="M27.4173 120.809C27.3115 120.809 27.2069 120.764 27.133 120.676C26.9991 120.519 27.0182 120.283 27.1763 120.15C27.1763 120.15 28.1963 119.281 29.3719 118.07C30.5156 116.892 31.3609 114.979 31.3698 114.96C31.4527 114.77 31.6707 114.685 31.8607 114.768C32.0507 114.849 32.1361 115.07 32.0532 115.259C32.0175 115.342 31.1454 117.317 29.9087 118.59C28.7063 119.828 27.7029 120.683 27.6608 120.72C27.5894 120.779 27.504 120.809 27.4173 120.809Z" fill="#387C67"/>
<path d="M25.9045 202.853H13.547C12.1229 202.853 10.7752 201.674 10.524 200.144L8.11166 185.453C7.68581 182.856 8.9519 180.607 10.9702 180.607H28.4838C30.5022 180.607 31.7683 182.856 31.3411 185.453L28.9288 200.144C28.6764 201.674 27.3287 202.853 25.9045 202.853Z" fill="#CACEED"/>
<path d="M299.623 203.418H120.873C120.606 203.418 120.389 203.186 120.389 202.898C120.389 202.611 120.606 202.379 120.873 202.379H299.623C299.891 202.379 300.107 202.61 300.107 202.898C300.107 203.186 299.891 203.418 299.623 203.418Z" fill="#7890B5"/>
<path d="M115.573 203.379H97.0443C96.7536 203.379 96.5178 203.145 96.5178 202.853C96.5178 202.562 96.7536 202.326 97.0443 202.326H115.573C115.864 202.326 116.099 202.561 116.099 202.853C116.099 203.145 115.862 203.379 115.573 203.379Z" fill="#7890B5"/>
<path d="M45.8492 203.379H12.1391C11.8484 203.379 11.6125 203.145 11.6125 202.853C11.6125 202.562 11.8484 202.326 12.1391 202.326H45.8492C46.1399 202.326 46.3757 202.561 46.3757 202.853C46.3757 203.145 46.1399 203.379 45.8492 203.379Z" fill="#7890B5"/>
<defs>
<radialGradient id="paint0_radial_239_7" cx="0" cy="0" r="1" gradientUnits="userSpaceOnUse" gradientTransform="translate(164.72 200.599) scale(173.603 173.603)">
<stop stop-color="#F4643C" stop-opacity="0"/>
<stop offset="0.4406" stop-color="#F4643C" stop-opacity="0.05"/>
<stop offset="0.774" stop-color="#F4643C" stop-opacity="0.1"/>
<stop offset="1" stop-color="#F4643C" stop-opacity="0.2"/>
</radialGradient>
<linearGradient id="paint1_linear_239_7" x1="77.3357" y1="49.6881" x2="134.334" y2="70.5937" gradientUnits="userSpaceOnUse">
<stop stop-color="#FF6600"/>
<stop offset="1" stop-color="#D128A1"/>
</linearGradient>
<linearGradient id="paint2_linear_239_7" x1="68.825" y1="49.5824" x2="125.832" y2="70.4781" gradientUnits="userSpaceOnUse">
<stop stop-color="#FF6600"/>
<stop offset="1" stop-color="#D128A1"/>
</linearGradient>
<linearGradient id="paint3_linear_239_7" x1="84.4971" y1="111.869" x2="112.44" y2="132.569" gradientUnits="userSpaceOnUse">
<stop stop-color="#FF6600"/>
<stop offset="1" stop-color="#D128A1"/>
</linearGradient>
<linearGradient id="paint4_linear_239_7" x1="245.428" y1="113.141" x2="257.449" y2="130.542" gradientUnits="userSpaceOnUse">
<stop stop-color="#FF6600"/>
<stop offset="1" stop-color="#D128A1"/>
</linearGradient>
<linearGradient id="paint5_linear_239_7" x1="231.537" y1="108.936" x2="248.059" y2="123.819" gradientUnits="userSpaceOnUse">
<stop stop-color="#FF6600"/>
<stop offset="1" stop-color="#D128A1"/>
</linearGradient>
<linearGradient id="paint6_linear_239_7" x1="222.547" y1="112.134" x2="240.106" y2="127.499" gradientUnits="userSpaceOnUse">
<stop stop-color="#FF6600"/>
<stop offset="1" stop-color="#D128A1"/>
</linearGradient>
</defs>
</svg>
