<svg width="306" height="231" viewBox="0 0 306 231" fill="none" xmlns="http://www.w3.org/2000/svg">
<path d="M117.346 89.9527H34.1654C31.3927 89.9527 29.1093 87.6733 29.1093 84.9056V20.677C29.1093 17.9092 31.3927 15.6299 34.1654 15.6299H117.346C120.119 15.6299 122.402 17.9092 122.402 20.677V84.9056C122.402 87.7547 120.119 89.9527 117.346 89.9527Z" fill="url(#paint0_linear_239_148)"/>
<path d="M117.346 89.9527H34.1654C31.3927 89.9527 29.1093 87.6733 29.1093 84.9056V20.677C29.1093 17.9092 31.3927 15.6299 34.1654 15.6299H117.346C120.119 15.6299 122.402 17.9092 122.402 20.677V84.9056C122.402 87.7547 120.119 89.9527 117.346 89.9527Z" stroke="url(#paint1_linear_239_148)" stroke-miterlimit="10"/>
<path d="M44.4407 24.503H39.8739V81.1609H44.4407V24.503Z" fill="#3816A4"/>
<g opacity="0.6">
<path d="M44.4407 24.503H39.8739V81.1609H44.4407V24.503Z" fill="#3816A4"/>
</g>
<path d="M44.4407 52.832H39.8739V81.1609H44.4407V52.832Z" fill="url(#paint2_linear_239_148)"/>
<path d="M57.6517 24.503H53.0849V81.1609H57.6517V24.503Z" fill="#3816A4"/>
<g opacity="0.6">
<path d="M57.6517 24.503H53.0849V81.1609H57.6517V24.503Z" fill="#3816A4"/>
</g>
<path d="M57.6517 37.8534H53.0849V81.0795H57.6517V37.8534Z" fill="url(#paint3_linear_239_148)"/>
<path d="M84.8079 31.7481C84.8079 36.551 80.8935 40.4584 76.082 40.4584C71.2706 40.4584 67.3562 36.551 67.3562 31.7481C67.3562 26.9452 71.2706 23.0377 76.082 23.0377C80.8935 23.0377 84.8079 26.9452 84.8079 31.7481Z" fill="url(#paint4_linear_239_148)"/>
<path d="M84.8079 31.7481C84.8079 36.551 80.8935 40.4584 76.082 40.4584C71.2706 40.4584 67.3562 36.551 67.3562 31.7481C67.3562 26.9452 71.2706 23.0377 76.082 23.0377C80.8935 23.0377 84.8079 26.9452 84.8079 31.7481Z" stroke="url(#paint5_linear_239_148)" stroke-width="0.5" stroke-miterlimit="10"/>
<path d="M76.1632 31.178C77.3049 31.178 78.2835 30.2012 78.2835 29.0615C78.2835 27.9218 77.3049 26.9449 76.1632 26.9449C75.0215 26.9449 74.0429 27.9218 74.0429 29.0615C74.0429 30.2826 74.9399 31.178 76.1632 31.178Z" fill="url(#paint6_radial_239_148)"/>
<path d="M76.1632 32.2363C74.7768 32.2363 71.9226 32.9689 71.9226 34.3528V35.4111H80.3222V34.3528C80.3222 32.9689 77.5495 32.2363 76.1632 32.2363Z" fill="url(#paint7_radial_239_148)"/>
<path d="M113.024 25.6426H92.7178C91.9838 25.6426 91.413 25.0727 91.413 24.3401C91.413 23.6074 91.9838 23.0376 92.7178 23.0376H113.024C113.758 23.0376 114.329 23.6074 114.329 24.3401C114.329 24.9913 113.758 25.6426 113.024 25.6426Z" fill="white"/>
<path d="M113.024 25.6426H92.7178C91.9838 25.6426 91.413 25.0727 91.413 24.3401C91.413 23.6074 91.9838 23.0376 92.7178 23.0376H113.024C113.758 23.0376 114.329 23.6074 114.329 24.3401C114.329 24.9913 113.758 25.6426 113.024 25.6426Z" stroke="url(#paint8_linear_239_148)" stroke-width="0.5" stroke-miterlimit="10"/>
<path d="M113.024 33.0504H92.7178C91.9838 33.0504 91.413 32.4806 91.413 31.7479C91.413 31.0153 91.9838 30.4454 92.7178 30.4454H113.024C113.758 30.4454 114.329 31.0153 114.329 31.7479C114.329 32.4806 113.758 33.0504 113.024 33.0504Z" fill="white"/>
<path d="M113.024 33.0504H92.7178C91.9838 33.0504 91.413 32.4806 91.413 31.7479C91.413 31.0153 91.9838 30.4454 92.7178 30.4454H113.024C113.758 30.4454 114.329 31.0153 114.329 31.7479C114.329 32.4806 113.758 33.0504 113.024 33.0504Z" stroke="url(#paint9_linear_239_148)" stroke-width="0.5" stroke-miterlimit="10"/>
<path d="M104.379 40.4583H92.7178C91.9838 40.4583 91.413 39.8885 91.413 39.1558C91.413 38.4232 91.9838 37.8533 92.7178 37.8533H104.379C105.113 37.8533 105.684 38.4232 105.684 39.1558C105.684 39.8885 105.113 40.4583 104.379 40.4583Z" fill="white"/>
<path d="M104.379 40.4583H92.7178C91.9838 40.4583 91.413 39.8885 91.413 39.1558C91.413 38.4232 91.9838 37.8533 92.7178 37.8533H104.379C105.113 37.8533 105.684 38.4232 105.684 39.1558C105.684 39.8885 105.113 40.4583 104.379 40.4583Z" stroke="url(#paint10_linear_239_148)" stroke-width="0.5" stroke-miterlimit="10"/>
<path d="M181.526 203.594L153.392 179.661V158.252C153.392 157.112 152.413 156.135 151.271 156.135C150.13 156.135 149.151 157.112 149.151 158.252V179.661L121.016 203.594C120.119 204.327 120.038 205.629 120.772 206.525C121.506 207.42 122.892 207.502 123.708 206.769L149.151 185.115V213.526C149.151 214.665 150.13 215.642 151.271 215.642C152.413 215.642 153.392 214.665 153.392 213.526V185.115L178.835 206.769C179.243 207.095 179.732 207.258 180.222 207.258C180.793 207.258 181.445 207.013 181.853 206.525C182.505 205.629 182.423 204.327 181.526 203.594Z" fill="url(#paint11_linear_239_148)"/>
<path d="M229.396 53.8904H73.1466V161.101H229.396V53.8904Z" fill="url(#paint12_linear_239_148)"/>
<path d="M230.13 60.0772H72.4126C68.9875 60.0772 66.2148 57.3094 66.2148 53.8904C66.2148 50.4714 68.9875 47.7036 72.4126 47.7036H230.13C233.555 47.7036 236.328 50.4714 236.328 53.8904C236.328 57.3094 233.555 60.0772 230.13 60.0772Z" fill="url(#paint13_linear_239_148)"/>
<path d="M230.13 47.785H72.4126C68.9875 47.785 66.2148 50.5528 66.2148 53.9718C66.2148 57.3908 68.9875 60.1586 72.4126 60.1586H73.1466V161.101H229.396V60.0772H230.13C233.555 60.0772 236.328 57.3094 236.328 53.8904C236.328 50.5528 233.555 47.785 230.13 47.785Z" stroke="url(#paint14_linear_239_148)" stroke-width="2" stroke-miterlimit="10"/>
<path d="M92.1473 76.1141V143.192H210.395" stroke="white" stroke-miterlimit="10"/>
<path d="M186.093 75.0558L153.228 105.257L122.729 112.502L92.1473 143.192" stroke="white" stroke-miterlimit="10"/>
<path d="M122.729 112.502V113.723" stroke="white" stroke-miterlimit="10"/>
<path d="M122.729 116.328V140.668" stroke="white" stroke-miterlimit="10" stroke-dasharray="3.15 3.15"/>
<path d="M122.729 141.971V143.192" stroke="white" stroke-miterlimit="10"/>
<path d="M153.229 105.257V106.478" stroke="white" stroke-miterlimit="10"/>
<path d="M153.229 108.839V140.831" stroke="white" stroke-miterlimit="10" stroke-dasharray="2.91 2.91"/>
<path d="M153.229 141.971V143.192" stroke="white" stroke-miterlimit="10"/>
<path d="M186.093 76.1141V77.3352" stroke="white" stroke-miterlimit="10"/>
<path d="M186.093 79.6959V140.831" stroke="white" stroke-miterlimit="10" stroke-dasharray="2.94 2.94"/>
<path d="M186.093 141.971V143.192" stroke="white" stroke-miterlimit="10"/>
<path d="M92.1473 71.5554L88.6406 77.5794H95.6539L92.1473 71.5554Z" fill="white"/>
<path d="M213.412 143.192L207.377 139.691V146.692L213.412 143.192Z" fill="white"/>
<path d="M158.447 105.257C158.447 108.106 156.164 110.386 153.31 110.386C150.455 110.386 148.172 108.106 148.172 105.257C148.172 102.408 150.455 100.129 153.31 100.129C156.164 100.129 158.447 102.408 158.447 105.257Z" fill="url(#paint15_linear_239_148)"/>
<path d="M158.447 105.257C158.447 108.106 156.164 110.386 153.31 110.386C150.455 110.386 148.172 108.106 148.172 105.257C148.172 102.408 150.455 100.129 153.31 100.129C156.164 100.129 158.447 102.408 158.447 105.257Z" stroke="url(#paint16_linear_239_148)" stroke-miterlimit="10"/>
<path d="M191.23 75.0559C191.23 77.905 188.947 80.1844 186.093 80.1844C183.239 80.1844 180.955 77.905 180.955 75.0559C180.955 72.2067 183.239 69.9273 186.093 69.9273C188.947 69.8459 191.23 72.2067 191.23 75.0559Z" fill="url(#paint17_linear_239_148)"/>
<path d="M191.23 75.0559C191.23 77.905 188.947 80.1844 186.093 80.1844C183.239 80.1844 180.955 77.905 180.955 75.0559C180.955 72.2067 183.239 69.9273 186.093 69.9273C188.947 69.8459 191.23 72.2067 191.23 75.0559Z" stroke="url(#paint18_linear_239_148)" stroke-miterlimit="10"/>
<path d="M127.866 112.502C127.866 115.351 125.583 117.631 122.729 117.631C119.874 117.631 117.591 115.351 117.591 112.502C117.591 109.653 119.874 107.374 122.729 107.374C125.583 107.374 127.866 109.653 127.866 112.502Z" fill="url(#paint19_linear_239_148)"/>
<path d="M127.866 112.502C127.866 115.351 125.583 117.631 122.729 117.631C119.874 117.631 117.591 115.351 117.591 112.502C117.591 109.653 119.874 107.374 122.729 107.374C125.583 107.374 127.866 109.653 127.866 112.502Z" stroke="url(#paint20_linear_239_148)" stroke-miterlimit="10"/>
<path d="M152.657 47.7848C137.326 72.0435 115.633 87.1034 98.8341 95.7323C89.4559 100.617 80.6485 103.954 73.5536 106.315V115.107C81.2193 112.746 91.3315 109.001 102.422 103.303C121.342 93.6158 145.97 76.358 162.443 47.7848H152.657Z" fill="url(#paint21_linear_239_148)"/>
<path d="M179.406 42.8192L174.268 13.2692L148.58 28.8175L160.16 34.0274C145.155 66.5081 118.651 85.4754 98.8344 95.6511C76.816 107.048 58.0595 110.385 57.8964 110.385L59.3643 118.607C60.1798 118.444 79.344 115.025 102.504 103.14C123.544 92.3135 151.76 72.125 167.826 37.3651L179.406 42.8192Z" fill="url(#paint22_linear_239_148)"/>
<path d="M179.406 42.8192L174.268 13.2692L148.58 28.8175L160.16 34.0274C145.155 66.5081 118.651 85.4754 98.8344 95.6511C76.816 107.048 58.0595 110.385 57.8964 110.385L59.3643 118.607C60.1798 118.444 79.344 115.025 102.504 103.14C123.544 92.3135 151.76 72.125 167.826 37.3651L179.406 42.8192Z" fill="url(#paint23_linear_239_148)"/>
<path d="M249.702 80.1027H209.09C206.562 80.1027 204.605 78.0675 204.605 75.6254V41.9237H254.269V75.6254C254.269 78.1489 252.23 80.1027 249.702 80.1027Z" fill="url(#paint24_linear_239_148)"/>
<path d="M249.702 80.1027H209.09C206.562 80.1027 204.605 78.0675 204.605 75.6254V41.9237H254.269V75.6254C254.269 78.1489 252.23 80.1027 249.702 80.1027Z" stroke="url(#paint25_linear_239_148)" stroke-miterlimit="10"/>
<path d="M251.007 31.5039H207.785C205.991 31.5039 204.605 33.2948 204.605 35.4927V41.9238H254.269V35.4927C254.269 33.2948 252.801 31.5039 251.007 31.5039Z" fill="url(#paint26_linear_239_148)"/>
<path d="M242.444 27.6779V35.3299" stroke="url(#paint27_linear_239_148)" stroke-width="6" stroke-miterlimit="10" stroke-linecap="round"/>
<path d="M216.348 27.6779V35.3299" stroke="url(#paint28_linear_239_148)" stroke-width="6" stroke-miterlimit="10" stroke-linecap="round"/>
<path d="M218.459 66.3323V65.2103L224.861 58.9403C225.447 58.3683 225.887 57.8697 226.181 57.4443C226.474 57.0043 226.672 56.5937 226.775 56.2123C226.877 55.831 226.929 55.4717 226.929 55.1343C226.929 54.2397 226.621 53.5357 226.005 53.0223C225.403 52.509 224.509 52.2523 223.321 52.2523C222.411 52.2523 221.605 52.3917 220.901 52.6703C220.211 52.949 219.617 53.3817 219.119 53.9683L217.997 53.0003C218.598 52.2963 219.368 51.7537 220.307 51.3723C221.245 50.991 222.294 50.8003 223.453 50.8003C224.494 50.8003 225.396 50.969 226.159 51.3063C226.921 51.629 227.508 52.1057 227.919 52.7363C228.344 53.367 228.557 54.1077 228.557 54.9583C228.557 55.457 228.483 55.9483 228.337 56.4323C228.205 56.9163 227.955 57.4297 227.589 57.9723C227.237 58.5003 226.716 59.1017 226.027 59.7763L220.153 65.5403L219.713 64.9243H229.261V66.3323H218.459ZM236.11 66.4643C235.01 66.4643 233.962 66.2883 232.964 65.9363C231.967 65.5697 231.175 65.0857 230.588 64.4843L231.358 63.2303C231.842 63.7437 232.502 64.169 233.338 64.5063C234.189 64.8437 235.106 65.0123 236.088 65.0123C237.394 65.0123 238.384 64.7263 239.058 64.1543C239.748 63.5677 240.092 62.805 240.092 61.8663C240.092 61.2063 239.931 60.6417 239.608 60.1723C239.3 59.6883 238.772 59.3143 238.024 59.0503C237.276 58.7863 236.25 58.6543 234.944 58.6543H231.666L232.458 50.9323H240.884V52.3403H233.096L233.91 51.5703L233.228 58.0383L232.414 57.2463H235.296C236.851 57.2463 238.098 57.437 239.036 57.8183C239.975 58.1997 240.65 58.735 241.06 59.4243C241.486 60.099 241.698 60.891 241.698 61.8003C241.698 62.6657 241.493 63.4577 241.082 64.1763C240.672 64.8803 240.056 65.4377 239.234 65.8483C238.413 66.259 237.372 66.4643 236.11 66.4643Z" fill="white"/>
<path d="M281.995 213.526H210.476C207.703 213.526 205.42 211.246 205.42 208.478V105.745C205.42 102.978 207.703 100.698 210.476 100.698H281.995C284.768 100.698 287.051 102.978 287.051 105.745V208.478C287.051 211.246 284.768 213.526 281.995 213.526Z" fill="#FF6600"/>
<path d="M281.995 213.526H210.476C207.703 213.526 205.42 211.246 205.42 208.478V105.745C205.42 102.978 207.703 100.698 210.476 100.698H281.995C284.768 100.698 287.051 102.978 287.051 105.745V208.478C287.051 211.246 284.768 213.526 281.995 213.526Z" stroke="url(#paint29_linear_239_148)" stroke-miterlimit="10"/>
<path d="M277.429 177.219H214.962C212.923 177.219 211.292 175.591 211.292 173.556V110.304C211.292 108.269 212.923 106.641 214.962 106.641H277.429C279.468 106.641 281.099 108.269 281.099 110.304V173.556C281.18 175.591 279.468 177.219 277.429 177.219Z" fill="white"/>
<path d="M277.429 177.219H214.962C212.923 177.219 211.292 175.591 211.292 173.556V110.304C211.292 108.269 212.923 106.641 214.962 106.641H277.429C279.468 106.641 281.099 108.269 281.099 110.304V173.556C281.18 175.591 279.468 177.219 277.429 177.219Z" stroke="url(#paint30_linear_239_148)" stroke-miterlimit="10"/>
<path d="M230.129 194.64L237.876 200.826C239.099 199.117 239.833 197.082 239.833 194.884C239.833 189.43 235.511 185.034 230.129 184.79V194.64Z" fill="url(#paint31_linear_239_148)"/>
<path d="M229.314 195.047V184.708C223.932 184.952 219.609 189.348 219.609 194.802C219.609 200.419 224.176 204.897 229.722 204.897C232.739 204.897 235.512 203.513 237.387 201.396L229.314 195.047Z" fill="white"/>
<path d="M263.157 194.395H272.862C272.617 189.185 268.458 184.952 263.157 184.708V194.395Z" fill="url(#paint32_linear_239_148)"/>
<path d="M262.26 195.209V194.802V184.708C256.878 184.952 252.556 189.348 252.556 194.802C252.556 200.256 256.878 204.652 262.26 204.896V195.209Z" fill="white"/>
<path d="M263.157 195.209V204.896C268.376 204.652 272.617 200.501 272.862 195.209H263.157Z" fill="url(#paint33_linear_239_148)"/>
<path d="M226.541 114.374H219.772V169.404H226.541V114.374Z" fill="url(#paint34_linear_239_148)"/>
<path d="M226.541 114.374H219.772V169.404H226.541V114.374Z" stroke="url(#paint35_linear_239_148)" stroke-width="0.5" stroke-miterlimit="10"/>
<path d="M241.873 141.156H235.104V169.404H241.873V141.156Z" fill="url(#paint36_linear_239_148)"/>
<path d="M241.873 141.156H235.104V169.404H241.873V141.156Z" stroke="url(#paint37_linear_239_148)" stroke-width="0.5" stroke-miterlimit="10"/>
<path d="M257.286 129.76H250.518V169.404H257.286V129.76Z" fill="url(#paint38_linear_239_148)"/>
<path d="M257.286 129.76H250.518V169.404H257.286V129.76Z" stroke="url(#paint39_linear_239_148)" stroke-width="0.5" stroke-miterlimit="10"/>
<path d="M272.698 120.154H265.93V169.485H272.698V120.154Z" fill="url(#paint40_linear_239_148)"/>
<path d="M272.698 120.154H265.93V169.485H272.698V120.154Z" stroke="url(#paint41_linear_239_148)" stroke-width="0.5" stroke-miterlimit="10"/>
<path d="M292.271 104.361C292.271 111.851 286.236 117.875 278.734 117.875C271.231 117.875 265.196 111.851 265.196 104.361C265.196 96.8721 271.231 90.8481 278.734 90.8481C286.236 90.8481 292.271 96.9535 292.271 104.361Z" fill="url(#paint42_linear_239_148)"/>
<path d="M292.271 104.361C292.271 111.851 286.236 117.875 278.734 117.875C271.231 117.875 265.196 111.851 265.196 104.361C265.196 96.8721 271.231 90.8481 278.734 90.8481C286.236 90.8481 292.271 96.9535 292.271 104.361Z" stroke="url(#paint43_linear_239_148)" stroke-miterlimit="10"/>
<path d="M277.51 109.653C277.184 109.653 276.776 109.49 276.532 109.246L271.72 104.606C271.149 104.036 271.149 103.222 271.72 102.652C272.21 102.082 273.107 102.082 273.677 102.652L277.51 106.396L283.871 99.6399C284.36 99.07 285.257 99.07 285.828 99.5585C286.399 100.047 286.399 100.942 285.91 101.512L278.57 109.327C278.244 109.49 277.918 109.653 277.51 109.653Z" fill="url(#paint44_linear_239_148)"/>
<path d="M107.723 183.813H42.6458C40.8517 183.813 39.3838 182.348 39.3838 180.557V138.552C39.3838 136.761 40.8517 135.295 42.6458 135.295H107.723C109.517 135.295 110.985 136.761 110.985 138.552V180.638C110.985 182.429 109.517 183.813 107.723 183.813Z" fill="url(#paint45_linear_239_148)"/>
<path d="M110.17 182.917L75.3477 157.193L40.2812 182.592C40.8521 183.324 41.7492 183.813 42.8093 183.813H107.886C108.783 183.813 109.517 183.487 110.17 182.917Z" fill="url(#paint46_linear_239_148)"/>
<path d="M40.3625 136.354L75.1843 166.148L110.251 136.68C109.68 135.947 108.783 135.458 107.723 135.458H42.6459C41.7489 135.377 40.9334 135.784 40.3625 136.354Z" fill="url(#paint47_linear_239_148)"/>
<path d="M50.0671 135.377C50.0671 140.831 45.6634 145.227 40.1996 145.227C34.7357 145.227 30.332 140.831 30.332 135.377C30.332 129.923 34.7357 125.527 40.1996 125.527C45.6634 125.608 50.0671 130.004 50.0671 135.377Z" fill="url(#paint48_linear_239_148)"/>
<path d="M50.0671 135.377C50.0671 140.831 45.6634 145.227 40.1996 145.227C34.7357 145.227 30.332 140.831 30.332 135.377C30.332 129.923 34.7357 125.527 40.1996 125.527C45.6634 125.608 50.0671 130.004 50.0671 135.377Z" stroke="url(#paint49_linear_239_148)" stroke-miterlimit="10"/>
<path d="M78.692 204.408C78.692 206.362 77.061 207.99 75.1038 207.99C73.1466 207.99 71.5156 206.362 71.5156 204.408C71.5156 202.454 73.1466 200.826 75.1038 200.826C77.061 200.826 78.692 202.454 78.692 204.408Z" fill="url(#paint50_linear_239_148)"/>
<path d="M146.297 6.83817C146.297 8.79189 144.666 10.42 142.708 10.42C140.751 10.42 139.12 8.79189 139.12 6.83817C139.12 4.88445 140.751 3.25635 142.708 3.25635C144.747 3.25635 146.297 4.88445 146.297 6.83817Z" fill="url(#paint51_linear_239_148)"/>
<path d="M278.734 64.2287C278.734 65.2056 277.918 66.0196 276.939 66.0196C275.961 66.0196 275.145 65.2056 275.145 64.2287C275.145 63.2519 275.961 62.4378 276.939 62.4378C277.918 62.4378 278.734 63.2519 278.734 64.2287Z" fill="url(#paint52_linear_239_148)"/>
<path d="M174.92 227.039C174.92 228.016 174.105 228.83 173.126 228.83C172.148 228.83 171.332 228.016 171.332 227.039C171.332 226.062 172.148 225.248 173.126 225.248C174.105 225.166 174.92 225.981 174.92 227.039Z" fill="url(#paint53_linear_239_148)"/>
<path d="M5.21514 29.0617C5.21514 30.0386 4.39964 30.8526 3.42104 30.8526C2.44244 30.8526 1.62695 30.0386 1.62695 29.0617C1.62695 28.0849 2.44244 27.2708 3.42104 27.2708C4.39964 27.2708 5.21514 28.0849 5.21514 29.0617Z" fill="url(#paint54_linear_239_148)"/>
<path d="M304.096 185.848C304.096 186.825 303.281 187.639 302.302 187.639C301.323 187.639 300.508 186.825 300.508 185.848C300.508 184.871 301.323 184.057 302.302 184.057C303.281 184.057 304.096 184.871 304.096 185.848Z" fill="url(#paint55_linear_239_148)"/>
<defs>
<linearGradient id="paint0_linear_239_148" x1="60.207" y1="31.1138" x2="85.0665" y2="79.6544" gradientUnits="userSpaceOnUse">
<stop stop-color="#FF6600"/>
<stop offset="1" stop-color="#D128A1"/>
</linearGradient>
<linearGradient id="paint1_linear_239_148" x1="83.4629" y1="9.2343" x2="68.113" y2="96.4423" gradientUnits="userSpaceOnUse">
<stop stop-color="#D493E6"/>
<stop offset="0.1144" stop-color="#CB8CE0"/>
<stop offset="0.3051" stop-color="#B178D1"/>
<stop offset="0.5483" stop-color="#8757B8"/>
<stop offset="0.8319" stop-color="#4E2B96"/>
<stop offset="1" stop-color="#290E80"/>
</linearGradient>
<linearGradient id="paint2_linear_239_148" x1="42.1977" y1="50.8467" x2="42.0566" y2="81.372" gradientUnits="userSpaceOnUse">
<stop stop-color="#63FFFD"/>
<stop offset="0.0755113" stop-color="#5BF6FA"/>
<stop offset="0.7056" stop-color="#1AB1E0"/>
<stop offset="1" stop-color="#0096D6"/>
</linearGradient>
<linearGradient id="paint3_linear_239_148" x1="55.4672" y1="35.5828" x2="55.185" y2="81.512" gradientUnits="userSpaceOnUse">
<stop stop-color="#63FFFD"/>
<stop offset="0.0755113" stop-color="#5BF6FA"/>
<stop offset="0.7056" stop-color="#1AB1E0"/>
<stop offset="1" stop-color="#0096D6"/>
</linearGradient>
<linearGradient id="paint4_linear_239_148" x1="81.6616" y1="24.2195" x2="70.5719" y2="39.3107" gradientUnits="userSpaceOnUse">
<stop stop-color="#63FFFD"/>
<stop offset="0.0755113" stop-color="#5BF6FA"/>
<stop offset="0.7056" stop-color="#1AB1E0"/>
<stop offset="1" stop-color="#0096D6"/>
</linearGradient>
<linearGradient id="paint5_linear_239_148" x1="76.1242" y1="22.8467" x2="76.1242" y2="40.6097" gradientUnits="userSpaceOnUse">
<stop stop-color="#C2FFFD"/>
<stop offset="0.4658" stop-color="#61BBDE"/>
<stop offset="0.8307" stop-color="#1B8AC8"/>
<stop offset="1" stop-color="#0077BF"/>
</linearGradient>
<radialGradient id="paint6_radial_239_148" cx="0" cy="0" r="1" gradientUnits="userSpaceOnUse" gradientTransform="translate(76.8194 28.4987) scale(2.10954 2.10578)">
<stop stop-color="white"/>
<stop offset="0.3379" stop-color="#EFEFEF"/>
<stop offset="0.9985" stop-color="#C4C4C4"/>
<stop offset="1" stop-color="#C4C4C4"/>
</radialGradient>
<radialGradient id="paint7_radial_239_148" cx="0" cy="0" r="1" gradientUnits="userSpaceOnUse" gradientTransform="translate(77.7269 33.5979) scale(3.18624 3.18058)">
<stop stop-color="white"/>
<stop offset="0.3379" stop-color="#EFEFEF"/>
<stop offset="0.9985" stop-color="#C4C4C4"/>
<stop offset="1" stop-color="#C4C4C4"/>
</radialGradient>
<linearGradient id="paint8_linear_239_148" x1="102.849" y1="22.7977" x2="102.849" y2="25.8057" gradientUnits="userSpaceOnUse">
<stop stop-color="white"/>
<stop offset="0.382" stop-color="#ECECEC"/>
<stop offset="1" stop-color="#D1D1D1"/>
</linearGradient>
<linearGradient id="paint9_linear_239_148" x1="102.849" y1="30.2239" x2="102.849" y2="33.232" gradientUnits="userSpaceOnUse">
<stop stop-color="white"/>
<stop offset="0.382" stop-color="#ECECEC"/>
<stop offset="1" stop-color="#D1D1D1"/>
</linearGradient>
<linearGradient id="paint10_linear_239_148" x1="98.5305" y1="37.6503" x2="98.5305" y2="40.6584" gradientUnits="userSpaceOnUse">
<stop stop-color="white"/>
<stop offset="0.382" stop-color="#ECECEC"/>
<stop offset="1" stop-color="#D1D1D1"/>
</linearGradient>
<linearGradient id="paint11_linear_239_148" x1="120.297" y1="185.845" x2="182.243" y2="185.845" gradientUnits="userSpaceOnUse">
<stop stop-color="#B556D0"/>
<stop offset="0.1446" stop-color="#AC51CD"/>
<stop offset="0.3854" stop-color="#9244C4"/>
<stop offset="0.6926" stop-color="#682FB5"/>
<stop offset="1" stop-color="#3816A4"/>
</linearGradient>
<linearGradient id="paint12_linear_239_148" x1="231.594" y1="51.4974" x2="73.869" y2="161.871" gradientUnits="userSpaceOnUse">
<stop stop-color="#FFE75E"/>
<stop offset="0.527" stop-color="#F6A33C"/>
<stop offset="1" stop-color="#EE621C"/>
</linearGradient>
<linearGradient id="paint13_linear_239_148" x1="208.374" y1="15.8359" x2="73.6081" y2="106.022" gradientUnits="userSpaceOnUse">
<stop stop-color="#FFE75E"/>
<stop offset="0.527" stop-color="#F6A33C"/>
<stop offset="1" stop-color="#EE621C"/>
</linearGradient>
<linearGradient id="paint14_linear_239_148" x1="234.662" y1="48.1473" x2="69.952" y2="158.372" gradientUnits="userSpaceOnUse">
<stop stop-color="#FFF6BF"/>
<stop offset="0.392" stop-color="#F3B181"/>
<stop offset="1" stop-color="#E03F1A"/>
</linearGradient>
<linearGradient id="paint15_linear_239_148" x1="157.592" y1="100.489" x2="149.406" y2="109.495" gradientUnits="userSpaceOnUse">
<stop stop-color="#B556D0"/>
<stop offset="0.1446" stop-color="#AC51CD"/>
<stop offset="0.3854" stop-color="#9244C4"/>
<stop offset="0.6926" stop-color="#682FB5"/>
<stop offset="1" stop-color="#3816A4"/>
</linearGradient>
<linearGradient id="paint16_linear_239_148" x1="155.076" y1="99.9836" x2="151.466" y2="110.486" gradientUnits="userSpaceOnUse">
<stop stop-color="#CD78E6"/>
<stop offset="1" stop-color="#331494"/>
</linearGradient>
<linearGradient id="paint17_linear_239_148" x1="184.38" y1="72.0626" x2="188.225" y2="78.0526" gradientUnits="userSpaceOnUse">
<stop stop-color="#FF6600"/>
<stop offset="1" stop-color="#D128A1"/>
</linearGradient>
<linearGradient id="paint18_linear_239_148" x1="184.548" y1="69.6839" x2="187.604" y2="80.3596" gradientUnits="userSpaceOnUse">
<stop stop-color="#C2FFFD"/>
<stop offset="0.4658" stop-color="#61BBDE"/>
<stop offset="0.8307" stop-color="#1B8AC8"/>
<stop offset="1" stop-color="#0077BF"/>
</linearGradient>
<linearGradient id="paint19_linear_239_148" x1="121.016" y1="109.511" x2="124.859" y2="115.5" gradientUnits="userSpaceOnUse">
<stop stop-color="#FF6600"/>
<stop offset="1" stop-color="#D128A1"/>
</linearGradient>
<linearGradient id="paint20_linear_239_148" x1="121.174" y1="107.189" x2="124.229" y2="117.865" gradientUnits="userSpaceOnUse">
<stop stop-color="#C2FFFD"/>
<stop offset="0.4658" stop-color="#61BBDE"/>
<stop offset="0.8307" stop-color="#1B8AC8"/>
<stop offset="1" stop-color="#0077BF"/>
</linearGradient>
<linearGradient id="paint21_linear_239_148" x1="73.568" y1="81.4319" x2="162.451" y2="81.4319" gradientUnits="userSpaceOnUse">
<stop stop-color="#63FFFD"/>
<stop offset="0.0755113" stop-color="#5BF6FA"/>
<stop offset="0.7056" stop-color="#1AB1E0"/>
<stop offset="1" stop-color="#0096D6"/>
</linearGradient>
<linearGradient id="paint22_linear_239_148" x1="98.3995" y1="35.2146" x2="135.327" y2="101.476" gradientUnits="userSpaceOnUse">
<stop stop-color="#FF6600"/>
<stop offset="1" stop-color="#D128A1"/>
</linearGradient>
<linearGradient id="paint23_linear_239_148" x1="57.9364" y1="65.8611" x2="179.331" y2="65.8611" gradientUnits="userSpaceOnUse">
<stop stop-color="#B556D0"/>
<stop offset="0.1446" stop-color="#AC51CD"/>
<stop offset="0.3854" stop-color="#9244C4"/>
<stop offset="0.6926" stop-color="#682FB5"/>
<stop offset="1" stop-color="#3816A4"/>
</linearGradient>
<linearGradient id="paint24_linear_239_148" x1="221.159" y1="49.8777" x2="233.661" y2="75.1744" gradientUnits="userSpaceOnUse">
<stop stop-color="#FF6600"/>
<stop offset="1" stop-color="#D128A1"/>
</linearGradient>
<linearGradient id="paint25_linear_239_148" x1="229.401" y1="41.5078" x2="229.401" y2="80.5361" gradientUnits="userSpaceOnUse">
<stop stop-color="#C2FFFD"/>
<stop offset="0.4658" stop-color="#61BBDE"/>
<stop offset="0.8307" stop-color="#1B8AC8"/>
<stop offset="1" stop-color="#0077BF"/>
</linearGradient>
<linearGradient id="paint26_linear_239_148" x1="221.159" y1="33.6747" x2="222.297" y2="42.1114" gradientUnits="userSpaceOnUse">
<stop stop-color="#FF6600"/>
<stop offset="1" stop-color="#D128A1"/>
</linearGradient>
<linearGradient id="paint27_linear_239_148" x1="-nan" y1="-nan" x2="-nan" y2="-nan" gradientUnits="userSpaceOnUse">
<stop stop-color="#FFE75E"/>
<stop offset="0.527" stop-color="#F6A33C"/>
<stop offset="1" stop-color="#EE621C"/>
</linearGradient>
<linearGradient id="paint28_linear_239_148" x1="-nan" y1="-nan" x2="-nan" y2="-nan" gradientUnits="userSpaceOnUse">
<stop stop-color="#EE8C1C"/>
<stop offset="0.497" stop-color="#FFE75E"/>
<stop offset="0.7621" stop-color="#F6A33C"/>
<stop offset="1" stop-color="#EE621C"/>
</linearGradient>
<linearGradient id="paint29_linear_239_148" x1="257.042" y1="95.8434" x2="235.468" y2="218.416" gradientUnits="userSpaceOnUse">
<stop stop-color="#CD78E6"/>
<stop offset="1" stop-color="#331494"/>
</linearGradient>
<linearGradient id="paint30_linear_239_148" x1="284.647" y1="113.016" x2="207.889" y2="170.961" gradientUnits="userSpaceOnUse">
<stop stop-color="white"/>
<stop offset="1" stop-color="#E3E3E3"/>
</linearGradient>
<linearGradient id="paint31_linear_239_148" x1="238.926" y1="189.147" x2="230.407" y2="195.455" gradientUnits="userSpaceOnUse">
<stop stop-color="#63FFFD"/>
<stop offset="0.0755113" stop-color="#5BF6FA"/>
<stop offset="0.7056" stop-color="#1AB1E0"/>
<stop offset="1" stop-color="#0096D6"/>
</linearGradient>
<linearGradient id="paint32_linear_239_148" x1="269.894" y1="187.067" x2="263.604" y2="195.315" gradientUnits="userSpaceOnUse">
<stop stop-color="#63FFFD"/>
<stop offset="0.0755113" stop-color="#5BF6FA"/>
<stop offset="0.7056" stop-color="#1AB1E0"/>
<stop offset="1" stop-color="#0096D6"/>
</linearGradient>
<linearGradient id="paint33_linear_239_148" x1="270.325" y1="202.869" x2="262.923" y2="194.063" gradientUnits="userSpaceOnUse">
<stop stop-color="#FFE75E"/>
<stop offset="0.527" stop-color="#F6A33C"/>
<stop offset="1" stop-color="#EE621C"/>
</linearGradient>
<linearGradient id="paint34_linear_239_148" x1="223.139" y1="114.407" x2="223.139" y2="169.438" gradientUnits="userSpaceOnUse">
<stop stop-color="#FFE75E"/>
<stop offset="0.527" stop-color="#F6A33C"/>
<stop offset="1" stop-color="#EE621C"/>
</linearGradient>
<linearGradient id="paint35_linear_239_148" x1="223.139" y1="114.203" x2="223.139" y2="169.642" gradientUnits="userSpaceOnUse">
<stop stop-color="#FFF5BF"/>
<stop offset="0.4254" stop-color="#EBB07B"/>
<stop offset="1" stop-color="#CF4D19"/>
</linearGradient>
<linearGradient id="paint36_linear_239_148" x1="238.525" y1="141.188" x2="238.525" y2="169.438" gradientUnits="userSpaceOnUse">
<stop stop-color="#FFE75E"/>
<stop offset="0.527" stop-color="#F6A33C"/>
<stop offset="1" stop-color="#EE621C"/>
</linearGradient>
<linearGradient id="paint37_linear_239_148" x1="238.525" y1="140.985" x2="238.525" y2="169.642" gradientUnits="userSpaceOnUse">
<stop stop-color="#FFF5BF"/>
<stop offset="0.4254" stop-color="#EBB07B"/>
<stop offset="1" stop-color="#CF4D19"/>
</linearGradient>
<linearGradient id="paint38_linear_239_148" x1="253.911" y1="129.788" x2="253.911" y2="169.438" gradientUnits="userSpaceOnUse">
<stop stop-color="#FFE75E"/>
<stop offset="0.527" stop-color="#F6A33C"/>
<stop offset="1" stop-color="#EE621C"/>
</linearGradient>
<linearGradient id="paint39_linear_239_148" x1="253.911" y1="129.585" x2="253.911" y2="169.642" gradientUnits="userSpaceOnUse">
<stop stop-color="#FFF5BF"/>
<stop offset="0.4254" stop-color="#EBB07B"/>
<stop offset="1" stop-color="#CF4D19"/>
</linearGradient>
<linearGradient id="paint40_linear_239_148" x1="269.296" y1="120.146" x2="269.296" y2="169.438" gradientUnits="userSpaceOnUse">
<stop stop-color="#FFE75E"/>
<stop offset="0.527" stop-color="#F6A33C"/>
<stop offset="1" stop-color="#EE621C"/>
</linearGradient>
<linearGradient id="paint41_linear_239_148" x1="269.296" y1="119.942" x2="269.296" y2="169.642" gradientUnits="userSpaceOnUse">
<stop stop-color="#FFF5BF"/>
<stop offset="0.4254" stop-color="#EBB07B"/>
<stop offset="1" stop-color="#CF4D19"/>
</linearGradient>
<linearGradient id="paint42_linear_239_148" x1="274.221" y1="96.4787" x2="284.349" y2="112.26" gradientUnits="userSpaceOnUse">
<stop stop-color="#FF6600"/>
<stop offset="1" stop-color="#D128A1"/>
</linearGradient>
<linearGradient id="paint43_linear_239_148" x1="286.936" y1="93.1158" x2="270.581" y2="115.667" gradientUnits="userSpaceOnUse">
<stop stop-color="#C2FFFD"/>
<stop offset="0.4658" stop-color="#61BBDE"/>
<stop offset="0.8307" stop-color="#1B8AC8"/>
<stop offset="1" stop-color="#0077BF"/>
</linearGradient>
<linearGradient id="paint44_linear_239_148" x1="284.819" y1="97.0408" x2="273.232" y2="107.637" gradientUnits="userSpaceOnUse">
<stop stop-color="white"/>
<stop offset="0.3379" stop-color="#EFEFEF"/>
<stop offset="0.9985" stop-color="#C4C4C4"/>
<stop offset="1" stop-color="#C4C4C4"/>
</linearGradient>
<linearGradient id="paint45_linear_239_148" x1="63.2507" y1="145.403" x2="77.8953" y2="179.022" gradientUnits="userSpaceOnUse">
<stop stop-color="#FF6600"/>
<stop offset="1" stop-color="#D128A1"/>
</linearGradient>
<linearGradient id="paint46_linear_239_148" x1="63.5773" y1="162.739" x2="68.6468" y2="183.443" gradientUnits="userSpaceOnUse">
<stop stop-color="#FF6600"/>
<stop offset="1" stop-color="#D128A1"/>
</linearGradient>
<linearGradient id="paint47_linear_239_148" x1="63.6586" y1="141.844" x2="70.2779" y2="165.284" gradientUnits="userSpaceOnUse">
<stop stop-color="#FF6600"/>
<stop offset="1" stop-color="#D128A1"/>
</linearGradient>
<linearGradient id="paint48_linear_239_148" x1="46.2225" y1="125.154" x2="35.5955" y2="143.44" gradientUnits="userSpaceOnUse">
<stop stop-color="#FFE75E"/>
<stop offset="0.527" stop-color="#F6A33C"/>
<stop offset="1" stop-color="#EE621C"/>
</linearGradient>
<linearGradient id="paint49_linear_239_148" x1="45.3642" y1="126.552" x2="35.1456" y2="144.283" gradientUnits="userSpaceOnUse">
<stop stop-color="#FFF6BF"/>
<stop offset="0.392" stop-color="#F3B181"/>
<stop offset="1" stop-color="#E03F1A"/>
</linearGradient>
<linearGradient id="paint50_linear_239_148" x1="71.5075" y1="204.404" x2="78.7128" y2="204.404" gradientUnits="userSpaceOnUse">
<stop stop-color="#FFE75E"/>
<stop offset="0.527" stop-color="#F6A33C"/>
<stop offset="1" stop-color="#EE621C"/>
</linearGradient>
<linearGradient id="paint51_linear_239_148" x1="139.118" y1="6.83613" x2="146.324" y2="6.83613" gradientUnits="userSpaceOnUse">
<stop stop-color="#FFE75E"/>
<stop offset="0.527" stop-color="#F6A33C"/>
<stop offset="1" stop-color="#EE621C"/>
</linearGradient>
<linearGradient id="paint52_linear_239_148" x1="275.137" y1="64.2247" x2="278.74" y2="64.2247" gradientUnits="userSpaceOnUse">
<stop stop-color="#B556D0"/>
<stop offset="0.1446" stop-color="#AC51CD"/>
<stop offset="0.3854" stop-color="#9244C4"/>
<stop offset="0.6926" stop-color="#682FB5"/>
<stop offset="1" stop-color="#3816A4"/>
</linearGradient>
<linearGradient id="paint53_linear_239_148" x1="171.306" y1="227.001" x2="174.909" y2="227.001" gradientUnits="userSpaceOnUse">
<stop stop-color="#B556D0"/>
<stop offset="0.1446" stop-color="#AC51CD"/>
<stop offset="0.3854" stop-color="#9244C4"/>
<stop offset="0.6926" stop-color="#682FB5"/>
<stop offset="1" stop-color="#3816A4"/>
</linearGradient>
<linearGradient id="paint54_linear_239_148" x1="1.58332" y1="29.0943" x2="5.18595" y2="29.0943" gradientUnits="userSpaceOnUse">
<stop stop-color="#63FFFD"/>
<stop offset="0.0755113" stop-color="#5BF6FA"/>
<stop offset="0.7056" stop-color="#1AB1E0"/>
<stop offset="1" stop-color="#0096D6"/>
</linearGradient>
<linearGradient id="paint55_linear_239_148" x1="300.462" y1="185.845" x2="304.065" y2="185.845" gradientUnits="userSpaceOnUse">
<stop stop-color="#63FFFD"/>
<stop offset="0.0755113" stop-color="#5BF6FA"/>
<stop offset="0.7056" stop-color="#1AB1E0"/>
<stop offset="1" stop-color="#0096D6"/>
</linearGradient>
</defs>
</svg>
