<svg width="140" height="40" viewBox="0 0 140 40" fill="none" xmlns="http://www.w3.org/2000/svg">
<g clip-path="url(#clip0_1_3156)">
<path fill-rule="evenodd" clip-rule="evenodd" d="M17.1573 39.3779L9.42174 34.9044C9.13615 34.7403 8.97689 34.4367 8.97654 34.1287V24.2043L0.40384 19.2467C0.118077 19.0824 -0.0417107 18.7828 -0.0422363 18.4749V9.4709C-0.0422363 8.77893 0.70905 8.36127 1.29249 8.70014L18.1169 18.4252C18.5432 18.6719 18.5432 18.6674 18.5432 19.2023V38.644C18.5432 39.3765 17.8231 39.7631 17.1573 39.3779Z" fill="#FF6600"/>
<path fill-rule="evenodd" clip-rule="evenodd" d="M21.8256 39.3779L29.5611 34.9044C29.8467 34.7403 30.006 34.4367 30.0063 34.1287V24.2043L38.579 19.2467C38.8648 19.0824 39.0246 18.7828 39.0251 18.4749V9.4709C39.0251 8.77893 38.2738 8.36127 37.6904 8.70014L20.866 18.4252C20.4397 18.6719 20.4397 18.6674 20.4397 19.2023V38.644C20.4397 39.3765 21.1598 39.7631 21.8256 39.3779Z" fill="#D128A1"/>
<path fill-rule="evenodd" clip-rule="evenodd" d="M36.6772 5.08878L28.9632 0.627776C28.6784 0.462112 28.3363 0.475798 28.07 0.629353L19.489 5.59174L10.9284 0.641118C10.6514 0.478086 10.2807 0.483526 10.0142 0.640064L2.317 5.09123C1.68503 5.45678 1.7022 6.37216 2.28704 6.70875L19.0191 16.3847C19.3047 16.5498 19.6705 16.5514 19.96 16.384L36.6416 6.73717C37.2748 6.37092 37.3081 5.45363 36.6772 5.08878Z" fill="url(#paint0_linear_1_3156)"/>
<path fill-rule="evenodd" clip-rule="evenodd" d="M65.0968 8.81461V12.5907H59.9787V28.1629H55.2733V12.5907H50.1552V8.81461H65.0968ZM136.93 10.3644C136.258 10.3644 135.708 10.1601 135.283 9.75156C134.857 9.34302 134.644 8.83812 134.644 8.23689C134.644 7.62021 134.857 7.10743 135.283 6.69906C135.708 6.29034 136.258 6.08606 136.93 6.08606C137.587 6.08606 138.129 6.29034 138.555 6.69906C138.981 7.10743 139.194 7.62021 139.194 8.23689C139.194 8.83812 138.981 9.34302 138.555 9.75156C138.129 10.1601 137.587 10.3644 136.93 10.3644ZM82.2872 20.2253C82.2872 20.6663 82.2597 21.1255 82.2047 21.6032H71.5556C71.629 22.5588 71.9363 23.2892 72.4776 23.7946C73.0186 24.2998 73.6837 24.5524 74.4725 24.5524C75.6465 24.5524 76.4628 24.0563 76.9215 23.064H81.9296C81.6726 24.0747 81.2095 24.9843 80.5399 25.7927C79.8702 26.6011 79.031 27.2351 78.0222 27.6944C77.0131 28.1538 75.885 28.3835 74.6375 28.3835C73.1334 28.3835 71.7941 28.0619 70.6202 27.4189C69.446 26.7757 68.5287 25.857 67.8684 24.6626C67.208 23.4682 66.8778 22.0718 66.8778 20.4732C66.8778 18.8747 67.2033 17.4783 67.8546 16.2839C68.5058 15.0897 69.4184 14.171 70.5925 13.5278C71.7666 12.8846 73.115 12.5631 74.6375 12.5631C76.1234 12.5631 77.4443 12.8755 78.6 13.5002C79.7557 14.125 80.6592 15.0161 81.3104 16.1737C81.9617 17.3312 82.2872 18.6818 82.2872 20.2253ZM77.4718 18.9849C77.4718 18.1766 77.1966 17.5334 76.6463 17.0557C76.0959 16.5778 75.4081 16.339 74.5825 16.339C73.7937 16.339 73.1288 16.5687 72.5876 17.0282C72.0464 17.4874 71.7116 18.1397 71.5831 18.9849H77.4718ZM94.4694 12.6182C96.2672 12.6182 97.7026 13.2016 98.7759 14.3684C99.8491 15.5352 100.386 17.1384 100.386 19.1779V28.1629H95.7077V19.8118C95.7077 18.7829 95.4418 17.9835 94.9096 17.4139C94.3777 16.8444 93.6623 16.5596 92.7635 16.5596C91.8646 16.5596 91.149 16.8444 90.6171 17.4139C90.0852 17.9835 89.819 18.7829 89.819 19.8118V28.1629H85.1138V12.7835H89.819V14.8231C90.2961 14.1432 90.938 13.6057 91.7454 13.2109C92.5524 12.8158 93.4605 12.6182 94.4694 12.6182ZM112.568 24.1666V28.1629H110.174C108.468 28.1629 107.138 27.7449 106.184 26.9089C105.23 26.073 104.753 24.7086 104.753 22.8161V16.6974H102.882V12.7835H104.753V9.03521H109.458V12.7835H112.54V16.6974H109.458V22.8712C109.458 23.3304 109.569 23.6612 109.789 23.8634C110.009 24.0656 110.376 24.1666 110.889 24.1666H112.568ZM114.596 20.4457C114.596 18.8656 114.894 17.4783 115.491 16.2839C116.087 15.0897 116.899 14.171 117.926 13.5278C118.953 12.8846 120.1 12.5631 121.366 12.5631C122.448 12.5631 123.397 12.7835 124.214 13.2245C125.03 13.6656 125.658 14.2443 126.098 14.961V12.7835H130.804V28.1629H126.098V25.9856C125.64 26.7021 125.002 27.2809 124.186 27.7219C123.37 28.1629 122.42 28.3835 121.338 28.3835C120.091 28.3835 118.953 28.0573 117.926 27.405C116.899 26.7529 116.087 25.8249 115.491 24.6212C114.894 23.4178 114.596 22.026 114.596 20.4457ZM126.098 20.4732C126.098 19.2973 125.773 18.3694 125.122 17.6896C124.47 17.0097 123.677 16.6698 122.741 16.6698C121.806 16.6698 121.012 17.005 120.361 17.6759C119.71 18.3464 119.384 19.2699 119.384 20.4457C119.384 21.6217 119.71 22.5542 120.361 23.2432C121.012 23.9324 121.806 24.2768 122.741 24.2768C123.677 24.2768 124.47 23.9369 125.122 23.2571C125.773 22.5772 126.098 21.6492 126.098 20.4732ZM139.271 12.7835V28.1629H134.566V12.7835H139.271Z" fill="#D128A1"/>
<path d="M68.0522 34.0082L66.6476 38.3088H65.5804L64.6357 35.3967L63.6605 38.3088H62.5992L61.1885 34.0082H62.219L63.1881 37.0309L64.2003 34.0082H65.1203L66.1016 37.0554L67.1015 34.0082H68.0522ZM70.209 38.3579C69.8614 38.3579 69.5495 38.2853 69.2736 38.1398C68.9976 37.9945 68.7819 37.7927 68.6265 37.5347C68.4711 37.2765 68.3933 36.9838 68.3933 36.6562C68.3933 36.3284 68.4711 36.0356 68.6265 35.7775C68.7819 35.5195 68.9976 35.3177 69.2736 35.1724C69.5495 35.0269 69.8614 34.9543 70.209 34.9543C70.5566 34.9543 70.8674 35.0269 71.1413 35.1724C71.4153 35.3177 71.6299 35.5195 71.7853 35.7775C71.9407 36.0356 72.0185 36.3284 72.0185 36.6562C72.0185 36.9838 71.9407 37.2765 71.7853 37.5347C71.6299 37.7927 71.4153 37.9945 71.1413 38.1398C70.8674 38.2853 70.5566 38.3579 70.209 38.3579ZM70.209 37.5715C70.4543 37.5715 70.6558 37.4885 70.8131 37.3227C70.9706 37.1569 71.0493 36.9347 71.0493 36.6562C71.0493 36.3777 70.9706 36.1553 70.8131 35.9895C70.6558 35.8237 70.4543 35.7406 70.209 35.7406C69.9637 35.7406 69.7612 35.8237 69.6017 35.9895C69.4423 36.1553 69.3626 36.3777 69.3626 36.6562C69.3626 36.9347 69.4423 37.1569 69.6017 37.3227C69.7612 37.4885 69.9637 37.5715 70.209 37.5715ZM73.9176 35.4397C74.032 35.28 74.1865 35.1591 74.3807 35.0771C74.575 34.9951 74.7989 34.9543 75.0524 34.9543V35.8389C74.9461 35.8308 74.8744 35.8266 74.8376 35.8266C74.5638 35.8266 74.349 35.9035 74.1936 36.057C74.0381 36.2106 73.9605 36.441 73.9605 36.7483V38.3088H73.0037V35.0034H73.9176V35.4397ZM75.9702 33.75H76.927V38.3088H75.9702V33.75ZM81.5251 33.75V38.3088H80.611V37.9278C80.374 38.2146 80.0304 38.3579 79.5806 38.3579C79.2698 38.3579 78.9886 38.2883 78.7372 38.1491C78.4858 38.0097 78.2883 37.8111 78.1453 37.5531C78.0022 37.2951 77.9305 36.9961 77.9305 36.6562C77.9305 36.3161 78.0022 36.0172 78.1453 35.7591C78.2883 35.5011 78.4858 35.3024 78.7372 35.1631C78.9886 35.0239 79.2698 34.9543 79.5806 34.9543C80.0018 34.9543 80.3309 35.0875 80.5681 35.3537V33.75H81.5251ZM79.7462 37.5715C79.9875 37.5715 80.1879 37.4885 80.3473 37.3227C80.5068 37.1569 80.5865 36.9347 80.5865 36.6562C80.5865 36.3777 80.5068 36.1553 80.3473 35.9895C80.1879 35.8237 79.9875 35.7406 79.7462 35.7406C79.5009 35.7406 79.2984 35.8237 79.1389 35.9895C78.9795 36.1553 78.8998 36.3777 78.8998 36.6562C78.8998 36.9347 78.9795 37.1569 79.1389 37.3227C79.2984 37.4885 79.5009 37.5715 79.7462 37.5715ZM87.4504 38.3579C87.1028 38.3579 86.7909 38.2853 86.515 38.1398C86.239 37.9945 86.0233 37.7927 85.8679 37.5347C85.7125 37.2765 85.6347 36.9838 85.6347 36.6562C85.6347 36.3284 85.7125 36.0356 85.8679 35.7775C86.0233 35.5195 86.239 35.3177 86.515 35.1724C86.7909 35.0269 87.1028 34.9543 87.4504 34.9543C87.798 34.9543 88.1088 35.0269 88.3827 35.1724C88.6567 35.3177 88.8713 35.5195 89.0267 35.7775C89.1822 36.0356 89.2599 36.3284 89.2599 36.6562C89.2599 36.9838 89.1822 37.2765 89.0267 37.5347C88.8713 37.7927 88.6567 37.9945 88.3827 38.1398C88.1088 38.2853 87.798 38.3579 87.4504 38.3579ZM87.4504 37.5715C87.6957 37.5715 87.8972 37.4885 88.0545 37.3227C88.212 37.1569 88.2907 36.9347 88.2907 36.6562C88.2907 36.3777 88.212 36.1553 88.0545 35.9895C87.8972 35.8237 87.6957 35.7406 87.4504 35.7406C87.2051 35.7406 87.0026 35.8237 86.8431 35.9895C86.6837 36.1553 86.604 36.3777 86.604 36.6562C86.604 36.9347 86.6837 37.1569 86.8431 37.3227C87.0026 37.4885 87.2051 37.5715 87.4504 37.5715ZM91.2939 35.0771H92.1403V35.8143H91.3184V38.3088H90.3617V35.8143H89.8525V35.0771H90.3617V34.9297C90.3617 34.5529 90.4731 34.2539 90.6959 34.0328C90.9188 33.8115 91.2326 33.7009 91.6375 33.7009C91.7806 33.7009 91.9166 33.7163 92.0454 33.7471C92.1742 33.7778 92.2816 33.8218 92.3674 33.8792L92.1158 34.5734C92.0054 34.4955 91.8767 34.4566 91.7295 34.4566C91.4392 34.4566 91.2939 34.6164 91.2939 34.9358V35.0771ZM101.701 34.9543C102.11 34.9543 102.44 35.0771 102.691 35.323C102.943 35.5687 103.069 35.9332 103.069 36.4165V38.3088H102.112V36.5639C102.112 36.3019 102.054 36.1062 101.94 35.9772C101.825 35.8482 101.66 35.7836 101.443 35.7836C101.202 35.7836 101.01 35.8584 100.867 36.0079C100.723 36.1574 100.652 36.3796 100.652 36.6746V38.3088H99.6951V33.75H100.652V35.3475C100.779 35.2205 100.932 35.1233 101.112 35.0557C101.292 34.9881 101.488 34.9543 101.701 34.9543ZM105.888 38.3579C105.54 38.3579 105.228 38.2853 104.952 38.1398C104.676 37.9945 104.461 37.7927 104.305 37.5347C104.15 37.2765 104.072 36.9838 104.072 36.6562C104.072 36.3284 104.15 36.0356 104.305 35.7775C104.461 35.5195 104.676 35.3177 104.952 35.1724C105.228 35.0269 105.54 34.9543 105.888 34.9543C106.235 34.9543 106.546 35.0269 106.82 35.1724C107.094 35.3177 107.309 35.5195 107.464 35.7775C107.62 36.0356 107.697 36.3284 107.697 36.6562C107.697 36.9838 107.62 37.2765 107.464 37.5347C107.309 37.7927 107.094 37.9945 106.82 38.1398C106.546 38.2853 106.235 38.3579 105.888 38.3579ZM105.888 37.5715C106.133 37.5715 106.335 37.4885 106.492 37.3227C106.649 37.1569 106.728 36.9347 106.728 36.6562C106.728 36.3777 106.649 36.1553 106.492 35.9895C106.335 35.8237 106.133 35.7406 105.888 35.7406C105.642 35.7406 105.44 35.8237 105.281 35.9895C105.121 36.1553 105.041 36.3777 105.041 36.6562C105.041 36.9347 105.121 37.1569 105.281 37.3227C105.44 37.4885 105.642 37.5715 105.888 37.5715ZM110.633 34.9543C110.94 34.9543 111.219 35.025 111.47 35.1663C111.722 35.3075 111.919 35.5062 112.062 35.7622C112.205 36.0181 112.277 36.3161 112.277 36.6562C112.277 36.9961 112.205 37.2941 112.062 37.55C111.919 37.806 111.722 38.0047 111.47 38.1459C111.219 38.2872 110.94 38.3579 110.633 38.3579C110.212 38.3579 109.881 38.2249 109.639 37.9585V39.5007H108.683V35.0034H109.596V35.3844C109.834 35.0976 110.179 34.9543 110.633 34.9543ZM110.467 37.5715C110.713 37.5715 110.914 37.4885 111.072 37.3227C111.229 37.1569 111.308 36.9347 111.308 36.6562C111.308 36.3777 111.229 36.1553 111.072 35.9895C110.914 35.8237 110.713 35.7406 110.467 35.7406C110.222 35.7406 110.021 35.8237 109.863 35.9895C109.706 36.1553 109.627 36.3777 109.627 36.6562C109.627 36.9347 109.706 37.1569 109.863 37.3227C110.021 37.4885 110.222 37.5715 110.467 37.5715ZM115.213 34.9543C115.519 34.9543 115.798 35.025 116.05 35.1663C116.301 35.3075 116.499 35.5062 116.642 35.7622C116.785 36.0181 116.856 36.3161 116.856 36.6562C116.856 36.9961 116.785 37.2941 116.642 37.55C116.499 37.806 116.301 38.0047 116.05 38.1459C115.798 38.2872 115.519 38.3579 115.213 38.3579C114.791 38.3579 114.46 38.2249 114.219 37.9585V39.5007H113.262V35.0034H114.176V35.3844C114.413 35.0976 114.759 34.9543 115.213 34.9543ZM115.047 37.5715C115.292 37.5715 115.494 37.4885 115.651 37.3227C115.809 37.1569 115.887 36.9347 115.887 36.6562C115.887 36.3777 115.809 36.1553 115.651 35.9895C115.494 35.8237 115.292 35.7406 115.047 35.7406C114.802 35.7406 114.6 35.8237 114.443 35.9895C114.285 36.1553 114.207 36.3777 114.207 36.6562C114.207 36.9347 114.285 37.1569 114.443 37.3227C114.6 37.4885 114.802 37.5715 115.047 37.5715ZM117.842 35.0034H118.798V38.3088H117.842V35.0034ZM118.32 34.5426C118.144 34.5426 118.001 34.4915 117.891 34.389C117.78 34.2867 117.725 34.1596 117.725 34.0082C117.725 33.8566 117.78 33.7297 117.891 33.6272C118.001 33.5249 118.144 33.4736 118.32 33.4736C118.496 33.4736 118.639 33.5228 118.749 33.6211C118.86 33.7193 118.915 33.8422 118.915 33.9898C118.915 34.1495 118.86 34.2816 118.749 34.386C118.639 34.4904 118.496 34.5426 118.32 34.5426ZM122.041 34.9543C122.45 34.9543 122.78 35.0771 123.032 35.323C123.283 35.5687 123.409 35.9332 123.409 36.4165V38.3088H122.452V36.5639C122.452 36.3019 122.395 36.1062 122.28 35.9772C122.166 35.8482 122 35.7836 121.783 35.7836C121.542 35.7836 121.35 35.8584 121.207 36.0079C121.063 36.1574 120.992 36.3796 120.992 36.6746V38.3088H120.035V35.0034H120.949V35.3905C121.076 35.2512 121.233 35.1438 121.421 35.068C121.609 34.9922 121.816 34.9543 122.041 34.9543ZM128.062 35.0034V37.7558C128.062 38.362 127.904 38.8126 127.59 39.1075C127.275 39.4025 126.815 39.5499 126.209 39.5499C125.89 39.5499 125.588 39.5109 125.302 39.4332C125.015 39.3552 124.778 39.2426 124.59 39.0952L124.97 38.4071C125.11 38.5218 125.285 38.6129 125.498 38.6805C125.711 38.748 125.923 38.7819 126.136 38.7819C126.467 38.7819 126.711 38.7072 126.869 38.5576C127.026 38.4081 127.105 38.1817 127.105 37.8787V37.7374C126.856 38.0119 126.508 38.1491 126.062 38.1491C125.76 38.1491 125.483 38.0826 125.231 37.9494C124.98 37.8162 124.78 37.6289 124.633 37.3873C124.486 37.1456 124.412 36.8671 124.412 36.5516C124.412 36.2362 124.486 35.9577 124.633 35.7161C124.78 35.4744 124.98 35.287 125.231 35.154C125.483 35.0208 125.76 34.9543 126.062 34.9543C126.541 34.9543 126.905 35.112 127.154 35.4274V35.0034H128.062ZM126.252 37.3627C126.506 37.3627 126.713 37.288 126.875 37.1384C127.036 36.9889 127.117 36.7932 127.117 36.5516C127.117 36.3099 127.036 36.1144 126.875 35.9649C126.713 35.8154 126.506 35.7406 126.252 35.7406C125.999 35.7406 125.79 35.8154 125.627 35.9649C125.463 36.1144 125.381 36.3099 125.381 36.5516C125.381 36.7932 125.463 36.9889 125.627 37.1384C125.79 37.288 125.999 37.3627 126.252 37.3627ZM97.2008 38.3579C96.927 38.3579 96.6591 38.3242 96.3973 38.2565C96.1356 38.1889 95.9271 38.104 95.7717 38.0017L96.0907 37.3136C96.2379 37.4076 96.4157 37.4845 96.6242 37.5438C96.8329 37.6033 97.0374 37.633 97.2376 37.633C97.6425 37.633 97.8449 37.5326 97.8449 37.332C97.8449 37.2378 97.7897 37.1702 97.6793 37.1291C97.5689 37.0882 97.3992 37.0533 97.1702 37.0247C96.9004 36.9838 96.6775 36.9366 96.5016 36.8834C96.3259 36.8303 96.1734 36.736 96.0447 36.6007C95.9159 36.4656 95.8514 36.2731 95.8514 36.0234C95.8514 35.8143 95.9118 35.629 96.0324 35.4672C96.1531 35.3054 96.3288 35.1796 96.5599 35.0894C96.791 34.9994 97.0638 34.9543 97.3789 34.9543C97.6119 34.9543 97.8438 34.9799 98.0749 35.0311C98.306 35.0822 98.4972 35.1529 98.6484 35.2431L98.3295 35.9251C98.0392 35.7612 97.7223 35.6792 97.3789 35.6792C97.1744 35.6792 97.0209 35.708 96.9188 35.7652C96.8164 35.8226 96.7655 35.8963 96.7655 35.9865C96.7655 36.0888 96.8206 36.1606 96.931 36.2015C97.0414 36.2424 97.2173 36.2813 97.4586 36.3182C97.7284 36.3633 97.9491 36.4114 98.121 36.4626C98.2927 36.5139 98.442 36.607 98.5687 36.7422C98.6955 36.8773 98.759 37.0658 98.759 37.3074C98.759 37.5121 98.6975 37.6944 98.5748 37.8541C98.4522 38.014 98.2733 38.1379 98.0382 38.2258C97.803 38.3139 97.5239 38.3579 97.2008 38.3579Z" fill="#FF6600"/>
</g>
<defs>
<linearGradient id="paint0_linear_1_3156" x1="13.3556" y1="-1.40618" x2="25.6506" y2="13.2005" gradientUnits="userSpaceOnUse">
<stop stop-color="#FF6600"/>
<stop offset="1" stop-color="#D128A1"/>
</linearGradient>
<clipPath id="clip0_1_3156">
<rect width="140" height="40" fill="white"/>
</clipPath>
</defs>
</svg>
