<svg width="42" height="42" viewBox="0 0 42 42" fill="none" xmlns="http://www.w3.org/2000/svg">
    <path d="M42 21C42 9.40202 32.598 0 21 0C9.40202 0 0 9.40202 0 21C0 32.598 9.40202 42 21 42C32.598 42 42 32.598 42 21Z" fill="white"/>
    <path d="M27.062 21.7095C27.0841 19.987 28.0055 18.3571 29.4673 17.4549C28.5451 16.1328 27.0005 15.2945 25.3935 15.244C23.6795 15.0634 22.0179 16.2736 21.1445 16.2736C20.2541 16.2736 18.9094 15.2619 17.4613 15.2918C15.5738 15.3531 13.8141 16.4304 12.8958 18.087C10.9217 21.5181 12.3942 26.5606 14.2852 29.334C15.2312 30.6921 16.3369 32.2091 17.7837 32.1553C19.1995 32.0964 19.7283 31.249 21.4372 31.249C23.1303 31.249 23.6264 32.1553 25.1025 32.1211C26.6217 32.0963 27.5789 30.757 28.4918 29.3861C29.1716 28.4184 29.6946 27.3489 30.0416 26.2172C28.2563 25.4592 27.0641 23.6555 27.062 21.7095Z" fill="url(#paint0_linear_70_20)"/>
    <path d="M24.2738 13.4201C25.1021 12.4218 25.5102 11.1387 25.4114 9.84329C24.1459 9.97669 22.9769 10.5839 22.1374 11.5439C21.3165 12.4818 20.8892 13.7423 20.97 14.9882C22.236 15.0013 23.4805 14.4106 24.2738 13.4201Z" fill="url(#paint1_linear_70_20)"/>
    <defs>
        <linearGradient id="paint0_linear_70_20" x1="17.9861" y1="14.4919" x2="26.9424" y2="25.7827" gradientUnits="userSpaceOnUse">
            <stop stop-color="#FF6600"/>
            <stop offset="1" stop-color="#D128A1"/>
        </linearGradient>
        <linearGradient id="paint1_linear_70_20" x1="17.9861" y1="14.4919" x2="26.9424" y2="25.7827" gradientUnits="userSpaceOnUse">
            <stop stop-color="#FF6600"/>
            <stop offset="1" stop-color="#D128A1"/>
        </linearGradient>
    </defs>
</svg>
