<svg width="42" height="42" viewBox="0 0 42 42" fill="none" xmlns="http://www.w3.org/2000/svg">
<g filter="url(#filter0_i_1_3172)">
<rect width="42" height="42" rx="21" fill="#FF6600"/>
<path fill-rule="evenodd" clip-rule="evenodd" d="M25.6576 10.6154H16.3424C11.9542 10.6154 10.3492 12.1803 10.3492 16.4588V25.5414C10.3492 29.8198 11.9542 31.3846 16.3424 31.3846H25.6547C30.0428 31.3846 31.6507 29.8198 31.6507 25.5414V16.4588C31.6507 12.1803 30.0457 10.6154 25.6576 10.6154Z" fill="white"/>
<path d="M19.689 22.5753H20.5151L20.1007 21.5178L19.689 22.5753ZM19.4856 23.1084L19.2406 23.7238H18.6828L19.8692 20.7697H20.3511L21.5328 23.7238H20.96L20.718 23.1084H19.4856ZM28.4624 23.7218H29.0016V20.7697H28.4624V23.7218ZM26.3166 22.4533H27.3102V21.9154H26.3166V21.3102H27.759V20.7716H25.7776V23.7235H27.8111V23.1851H26.3166V22.4533ZM24.1742 22.8021L23.5628 20.7697H23.117L22.5056 22.8021L21.9107 20.7711H21.3292L22.2678 23.7252H22.72L23.3323 21.7847L23.9444 23.7252H24.4008L25.337 20.7711H24.7705L24.1742 22.8021ZM17.8597 22.4615C17.8597 22.942 17.6423 23.1988 17.2475 23.1988C16.8505 23.1988 16.6319 22.9348 16.6319 22.441V20.7714H16.0855V22.4615C16.0855 23.293 16.5064 23.7697 17.2401 23.7697C17.9809 23.7697 18.4059 23.2838 18.4059 22.437V20.7697H17.8597V22.4615ZM14.7818 20.7697H15.328V23.7254H14.7818V22.5251H13.548V23.7254H13.0016V20.7697H13.548V21.9621H14.7818V20.7697Z" fill="#FF6600"/>
<path d="M21.1454 17.3041C19.3276 17.3041 17.8341 15.883 17.7092 14.0894C17.6999 13.9553 17.8097 13.8461 17.9441 13.8461C18.0785 13.8461 18.1864 13.9554 18.1973 14.0893C18.3209 15.6133 19.5958 16.8156 21.1454 16.8156C22.6949 16.8156 23.9698 15.6133 24.0935 14.0893C24.1043 13.9554 24.2122 13.8461 24.3466 13.8461C24.481 13.8461 24.5908 13.9553 24.5815 14.0894C24.4567 15.883 22.9631 17.3041 21.1454 17.3041Z" fill="#FF6600"/>
</g>
<defs>
<filter id="filter0_i_1_3172" x="0" y="0" width="42" height="44" filterUnits="userSpaceOnUse" color-interpolation-filters="sRGB">
<feFlood flood-opacity="0" result="BackgroundImageFix"/>
<feBlend mode="normal" in="SourceGraphic" in2="BackgroundImageFix" result="shape"/>
<feColorMatrix in="SourceAlpha" type="matrix" values="0 0 0 0 0 0 0 0 0 0 0 0 0 0 0 0 0 0 127 0" result="hardAlpha"/>
<feOffset dy="2"/>
<feGaussianBlur stdDeviation="2.85"/>
<feComposite in2="hardAlpha" operator="arithmetic" k2="-1" k3="1"/>
<feColorMatrix type="matrix" values="0 0 0 0 0 0 0 0 0 0 0 0 0 0 0 0 0 0 0.25 0"/>
<feBlend mode="normal" in2="shape" result="effect1_innerShadow_1_3172"/>
</filter>
</defs>
</svg>
